<svg width="258" height="214" viewBox="0 0 258 214" fill="none" xmlns="http://www.w3.org/2000/svg">
<path opacity="0.318925" d="M84.4974 213.8C68.2974 213.8 53.8974 209.6 41.2974 201.2C28.6974 192.6 18.7974 180.4 11.5974 164.6C4.39742 148.6 0.797419 129.4 0.797419 107C0.797419 84.6 4.39742 65.5 11.5974 49.7C18.7974 33.7 28.6974 21.5 41.2974 13.1C53.8974 4.49999 68.2974 0.199991 84.4974 0.199991C100.697 0.199991 115.097 4.49999 127.697 13.1C140.297 21.5 150.197 33.7 157.397 49.7C164.797 65.5 168.497 84.6 168.497 107C168.497 129.4 164.797 148.6 157.397 164.6C150.197 180.4 140.297 192.6 127.697 201.2C115.097 209.6 100.697 213.8 84.4974 213.8ZM84.4974 194C96.8974 194 107.697 190.7 116.897 184.1C126.097 177.3 133.297 167.5 138.497 154.7C143.697 141.7 146.297 125.8 146.297 107C146.297 88.2 143.697 72.4 138.497 59.6C133.297 46.6 126.097 36.8 116.897 30.2C107.697 23.4 96.8974 20 84.4974 20C72.4974 20 61.7974 23.4 52.3974 30.2C42.9974 36.8 35.6974 46.6 30.4974 59.6C25.2974 72.4 22.6974 88.2 22.6974 107C22.6974 125.8 25.2974 141.7 30.4974 154.7C35.6974 167.5 42.9974 177.3 52.3974 184.1C61.7974 190.7 72.4974 194 84.4974 194ZM236.03 212V11L245.63 21.2H186.53V1.99999H257.63V212H236.03Z" fill="url(#paint0_linear_0_959)"/>
<defs>
<linearGradient id="paint0_linear_0_959" x1="-45.6039" y1="86.2981" x2="170.953" y2="290.172" gradientUnits="userSpaceOnUse">
<stop stop-color="#F8E6E2"/>
<stop offset="1" stop-color="#B0776B"/>
</linearGradient>
</defs>
</svg>
