<svg width="343" height="214" viewBox="0 0 343 214" fill="none" xmlns="http://www.w3.org/2000/svg">
<path opacity="0.318925" d="M83.7297 213.8C67.5297 213.8 53.1297 209.6 40.5297 201.2C27.9297 192.6 18.0297 180.4 10.8297 164.6C3.62969 148.6 0.0296878 129.4 0.0296878 107C0.0296878 84.6 3.62969 65.5 10.8297 49.7C18.0297 33.7 27.9297 21.5 40.5297 13.1C53.1297 4.49999 67.5297 0.199991 83.7297 0.199991C99.9297 0.199991 114.33 4.49999 126.93 13.1C139.53 21.5 149.43 33.7 156.63 49.7C164.03 65.5 167.73 84.6 167.73 107C167.73 129.4 164.03 148.6 156.63 164.6C149.43 180.4 139.53 192.6 126.93 201.2C114.33 209.6 99.9297 213.8 83.7297 213.8ZM83.7297 194C96.1297 194 106.93 190.7 116.13 184.1C125.33 177.3 132.53 167.5 137.73 154.7C142.93 141.7 145.53 125.8 145.53 107C145.53 88.2 142.93 72.4 137.73 59.6C132.53 46.6 125.33 36.8 116.13 30.2C106.93 23.4 96.1297 20 83.7297 20C71.7297 20 61.0297 23.4 51.6297 30.2C42.2297 36.8 34.9297 46.6 29.7297 59.6C24.5297 72.4 21.9297 88.2 21.9297 107C21.9297 125.8 24.5297 141.7 29.7297 154.7C34.9297 167.5 42.2297 177.3 51.6297 184.1C61.0297 190.7 71.7297 194 83.7297 194ZM194.763 212V196.7L282.063 111.2C290.063 103.4 296.063 96.6 300.063 90.8C304.063 84.8 306.763 79.2 308.163 74C309.563 68.8 310.263 63.9 310.263 59.3C310.263 47.1 306.063 37.5 297.663 30.5C289.463 23.5 277.263 20 261.063 20C248.663 20 237.663 21.9 228.063 25.7C218.663 29.5 210.563 35.4 203.763 43.4L188.463 30.2C196.663 20.6 207.163 13.2 219.963 8C232.763 2.79999 247.063 0.199991 262.863 0.199991C277.063 0.199991 289.363 2.49999 299.763 7.09999C310.163 11.5 318.163 18 323.763 26.6C329.563 35.2 332.463 45.3 332.463 56.9C332.463 63.7 331.463 70.4 329.463 77C327.663 83.6 324.263 90.6 319.263 98C314.463 105.2 307.363 113.4 297.963 122.6L217.863 201.2L211.863 192.8H342.063V212H194.763Z" fill="url(#paint0_linear_0_949)"/>
<defs>
<linearGradient id="paint0_linear_0_949" x1="-53.0393" y1="86.2981" x2="162.205" y2="330.408" gradientUnits="userSpaceOnUse">
<stop stop-color="#F8E6E2"/>
<stop offset="1" stop-color="#B0776B"/>
</linearGradient>
</defs>
</svg>
