<svg width="335" height="214" viewBox="0 0 335 214" fill="none" xmlns="http://www.w3.org/2000/svg">
<path opacity="0.318925" d="M83.7805 213.8C67.5805 213.8 53.1805 209.6 40.5805 201.2C27.9805 192.6 18.0805 180.4 10.8805 164.6C3.68047 148.6 0.0804691 129.4 0.0804691 107C0.0804691 84.5998 3.68047 65.4998 10.8805 49.6998C18.0805 33.6997 27.9805 21.4997 40.5805 13.0997C53.1805 4.49975 67.5805 0.199747 83.7805 0.199747C99.9805 0.199747 114.38 4.49975 126.98 13.0997C139.58 21.4997 149.48 33.6997 156.68 49.6998C164.08 65.4998 167.78 84.5998 167.78 107C167.78 129.4 164.08 148.6 156.68 164.6C149.48 180.4 139.58 192.6 126.98 201.2C114.38 209.6 99.9805 213.8 83.7805 213.8ZM83.7805 194C96.1805 194 106.98 190.7 116.18 184.1C125.38 177.3 132.58 167.5 137.78 154.7C142.98 141.7 145.58 125.8 145.58 107C145.58 88.1997 142.98 72.3997 137.78 59.5998C132.58 46.5998 125.38 36.7998 116.18 30.1998C106.98 23.3997 96.1805 19.9997 83.7805 19.9997C71.7805 19.9997 61.0805 23.3997 51.6805 30.1998C42.2805 36.7998 34.9805 46.5998 29.7805 59.5998C24.5805 72.3997 21.9805 88.1997 21.9805 107C21.9805 125.8 24.5805 141.7 29.7805 154.7C34.9805 167.5 42.2805 177.3 51.6805 184.1C61.0805 190.7 71.7805 194 83.7805 194ZM258.484 213.8C243.284 213.8 228.884 211.4 215.284 206.6C201.884 201.6 191.084 195 182.884 186.8L193.384 169.7C200.184 176.7 209.284 182.5 220.684 187.1C232.284 191.7 244.884 194 258.484 194C275.884 194 289.184 190.2 298.384 182.6C307.784 175 312.484 164.8 312.484 152C312.484 139.2 307.884 129 298.684 121.4C289.684 113.8 275.384 110 255.784 110H240.784V94.0998L305.584 12.7997L308.584 21.1997H191.584V1.99974H326.584V17.2997L261.784 98.5997L251.284 91.6997H259.384C284.584 91.6997 303.384 97.2997 315.784 108.5C328.384 119.7 334.684 134.1 334.684 151.7C334.684 163.5 331.884 174.1 326.284 183.5C320.684 192.9 312.184 200.3 300.784 205.7C289.584 211.1 275.484 213.8 258.484 213.8Z" fill="url(#paint0_linear_0_933)"/>
<defs>
<linearGradient id="paint0_linear_0_933" x1="-52.6388" y1="86.2979" x2="162.886" y2="328.084" gradientUnits="userSpaceOnUse">
<stop stop-color="#F8E6E2"/>
<stop offset="1" stop-color="#B0776B"/>
</linearGradient>
</defs>
</svg>
