<svg width="367" height="214" viewBox="0 0 367 214" fill="none" xmlns="http://www.w3.org/2000/svg">
<path opacity="0.318925" d="M73.3137 213.8C57.1137 213.8 42.7137 209.6 30.1137 201.2C17.5137 192.6 7.61367 180.4 0.413674 164.6C-6.78633 148.6 -10.3863 129.4 -10.3863 107C-10.3863 84.6001 -6.78633 65.5001 0.413674 49.7001C7.61367 33.7001 17.5137 21.5001 30.1137 13.1001C42.7137 4.50011 57.1137 0.200113 73.3137 0.200113C89.5137 0.200113 103.914 4.50011 116.514 13.1001C129.114 21.5001 139.014 33.7001 146.214 49.7001C153.614 65.5001 157.314 84.6001 157.314 107C157.314 129.4 153.614 148.6 146.214 164.6C139.014 180.4 129.114 192.6 116.514 201.2C103.914 209.6 89.5137 213.8 73.3137 213.8ZM73.3137 194C85.7137 194 96.5137 190.7 105.714 184.1C114.914 177.3 122.114 167.5 127.314 154.7C132.514 141.7 135.114 125.8 135.114 107C135.114 88.2001 132.514 72.4001 127.314 59.6001C122.114 46.6001 114.914 36.8001 105.714 30.2001C96.5137 23.4001 85.7137 20.0001 73.3137 20.0001C61.3137 20.0001 50.6137 23.4001 41.2137 30.2001C31.8137 36.8001 24.5137 46.6001 19.3137 59.6001C14.1137 72.4001 11.5137 88.2001 11.5137 107C11.5137 125.8 14.1137 141.7 19.3137 154.7C24.5137 167.5 31.8137 177.3 41.2137 184.1C50.6137 190.7 61.3137 194 73.3137 194ZM184.646 156.8V141.2L295.946 2.00011H319.946L209.546 141.2L197.846 137.6H366.746V156.8H184.646ZM303.146 212V156.8L303.746 137.6V89.0001H324.746V212H303.146Z" fill="url(#paint0_linear_0_927)"/>
<defs>
<linearGradient id="paint0_linear_0_927" x1="-65.7421" y1="86.2983" x2="147.096" y2="345.294" gradientUnits="userSpaceOnUse">
<stop stop-color="#F8E6E2"/>
<stop offset="1" stop-color="#B0776B"/>
</linearGradient>
</defs>
</svg>
