<svg width="105" height="105" viewBox="0 0 105 105" fill="none" xmlns="http://www.w3.org/2000/svg">
<circle cx="52.5" cy="52.5" r="52.5" fill="url(#paint0_linear_0_642)"/>
<path d="M31.5 43C31.5 40.6147 31.5021 38.9263 31.6741 37.6469C31.8423 36.3962 32.1561 35.687 32.6716 35.1716C33.187 34.6561 33.8962 34.3423 35.1469 34.1741C36.4263 34.0021 38.1147 34 40.5 34H65.5C67.8853 34 69.5737 34.0021 70.8531 34.1741C72.1038 34.3423 72.813 34.6561 73.3284 35.1716C73.8439 35.687 74.1577 36.3962 74.3259 37.6469C74.4979 38.9263 74.5 40.6147 74.5 43V64.5H31.5V43Z" stroke="white" stroke-width="2"/>
<path d="M32.1667 64.5C30.6939 64.5 29.5 65.6939 29.5 67.1667C29.5 69.5599 31.4401 71.5 33.8333 71.5H72.1667C74.5599 71.5 76.5 69.5599 76.5 67.1667C76.5 65.6939 75.3061 64.5 73.8333 64.5H32.1667Z" stroke="white" stroke-width="2"/>
<defs>
<linearGradient id="paint0_linear_0_642" x1="-10.5111" y1="47.4216" x2="51.3198" y2="116.786" gradientUnits="userSpaceOnUse">
<stop stop-color="#4FA5D8"/>
<stop offset="1" stop-color="#0855B1"/>
</linearGradient>
</defs>
</svg>
