<svg width="105" height="105" viewBox="0 0 105 105" fill="none" xmlns="http://www.w3.org/2000/svg">
<circle cx="52.5" cy="52.5" r="52.5" fill="url(#paint0_linear_0_659)"/>
<path fill-rule="evenodd" clip-rule="evenodd" d="M32.8667 27.1075C33.3597 26.8586 33.9611 27.0566 34.21 27.5496C34.4589 28.0427 34.2609 28.6441 33.7679 28.8929L28.0044 31.802C28.0709 36.3031 28.8843 40.6184 31.0143 43.823C32.5926 46.1976 34.9401 48.0322 38.423 48.8518C39.5578 47.7134 41.0975 47.0139 42.7933 47.0139C44.4657 47.0139 45.9863 47.6942 47.1164 48.8049C50.2981 47.9674 52.4605 46.1687 53.9295 43.8419C55.9578 40.6292 56.7312 36.3 56.793 31.7878L51.3264 28.8833C50.8386 28.6242 50.6533 28.0187 50.9125 27.531C51.1716 27.0433 51.777 26.858 52.2648 27.1171L58.1866 30.2635C58.5621 30.4629 58.7978 30.854 58.797 31.281C58.7874 36.1216 58.0217 41.1064 55.6206 44.9096C53.9871 47.4971 51.6295 49.4844 48.3721 50.5215C48.8435 51.4475 49.1107 52.5048 49.1107 53.6273C49.1107 56.8981 46.8426 59.6143 43.8631 60.1464C44.0242 66.6668 44.4856 70.9916 45.4694 73.7983C46.0953 75.5842 46.8998 76.6515 47.8873 77.2959C48.8873 77.9486 50.2069 78.2545 52.0325 78.2545H68.5905C70.7996 78.2545 72.5905 76.4637 72.5905 74.2545V62.6889C69.6038 62.3716 67.2731 59.7311 67.2731 56.5207C67.2731 53.0965 69.9247 50.3206 73.1956 50.3206C76.4666 50.3206 79.1182 53.0965 79.1182 56.5207C79.1182 59.442 77.1883 61.8914 74.5905 62.5479V74.2545C74.5905 77.5682 71.9042 80.2545 68.5905 80.2545H52.0325C50.0084 80.2545 48.2482 79.9198 46.7942 78.9708C45.3275 78.0135 44.3034 76.5181 43.5819 74.4599C42.4963 71.3624 42.0234 66.76 41.8623 60.1695C38.8147 59.6982 36.476 56.9487 36.476 53.6273C36.476 52.5335 36.7296 51.5017 37.1787 50.5929C33.6503 49.5816 31.1056 47.5734 29.3487 44.9301C26.818 41.1227 26.0103 36.1297 26 31.2833C25.9991 30.8475 26.2445 30.45 26.6317 30.2545L32.8667 27.1075Z" fill="white"/>
<defs>
<linearGradient id="paint0_linear_0_659" x1="-10.5111" y1="47.4216" x2="51.3198" y2="116.786" gradientUnits="userSpaceOnUse">
<stop stop-color="#4FA5D8"/>
<stop offset="1" stop-color="#0855B1"/>
</linearGradient>
</defs>
</svg>
