<svg width="105" height="105" viewBox="0 0 105 105" fill="none" xmlns="http://www.w3.org/2000/svg">
<circle cx="52.5" cy="52.5" r="52.5" fill="url(#paint0_linear_0_735)"/>
<circle cx="53" cy="43" r="9" stroke="white" stroke-width="2" stroke-linecap="round"/>
<path d="M59.8708 42.25C60.7328 40.7571 62.1525 39.6677 63.8177 39.2215C65.4828 38.7753 67.2571 39.0089 68.75 39.8708C70.2429 40.7328 71.3323 42.1525 71.7785 43.8177C72.2247 45.4828 71.9911 47.2571 71.1292 48.75C70.2672 50.2429 68.8475 51.3323 67.1823 51.7785C65.5172 52.2247 63.7429 51.9911 62.25 51.1292C60.7571 50.2672 59.6677 48.8475 59.2215 47.1823C58.7753 45.5172 59.0089 43.7429 59.8708 42.25L59.8708 42.25Z" stroke="white" stroke-width="2"/>
<path d="M34.8708 42.25C35.7328 40.7571 37.1525 39.6677 38.8177 39.2215C40.4828 38.7753 42.2571 39.0089 43.75 39.8708C45.2429 40.7328 46.3323 42.1525 46.7785 43.8177C47.2247 45.4828 46.9911 47.2571 46.1292 48.75C45.2672 50.2429 43.8475 51.3323 42.1823 51.7785C40.5172 52.2247 38.7429 51.9911 37.25 51.1292C35.7571 50.2672 34.6677 48.8475 34.2215 47.1823C33.7753 45.5172 34.0089 43.7429 34.8708 42.25L34.8708 42.25Z" stroke="white" stroke-width="2"/>
<path d="M65.204 68L64.2237 68.1974L64.3853 69H65.204V68ZM75.2841 66.8929L76.2566 66.6603L75.2841 66.8929ZM59.952 59.7763L59.3472 58.98L58.1906 59.8585L59.4239 60.6255L59.952 59.7763ZM74.3672 67H65.204V69H74.3672V67ZM74.3115 67.1254C74.3094 67.1168 74.3076 67.0972 74.3136 67.0729C74.3192 67.0501 74.3293 67.0329 74.3388 67.0216C74.3579 66.999 74.3739 67 74.3672 67V69C75.5455 69 76.5626 67.9398 76.2566 66.6603L74.3115 67.1254ZM65.5 59C68.6142 59 70.6322 60.3906 71.9766 62.0906C73.3485 63.8256 74.0157 65.8887 74.3115 67.1254L76.2566 66.6603C75.93 65.2942 75.1749 62.9108 73.5454 60.8501C71.8882 58.7544 69.3254 57 65.5 57V59ZM60.5569 60.5727C61.7748 59.6476 63.372 59 65.5 59V57C62.9282 57 60.9074 57.7949 59.3472 58.98L60.5569 60.5727ZM59.4239 60.6255C62.5387 62.5628 63.7554 65.872 64.2237 68.1974L66.1843 67.8026C65.6723 65.2599 64.2843 61.2931 60.4802 58.9272L59.4239 60.6255Z" fill="white"/>
<path d="M46.0479 59.7763L46.576 60.6255L47.8094 59.8584L46.6528 58.98L46.0479 59.7763ZM30.7159 66.8928L29.7433 66.6603L30.7159 66.8928ZM40.7959 68V69H41.6145L41.7762 68.1974L40.7959 68ZM40.5 59C42.628 59 44.2252 59.6476 45.4431 60.5726L46.6528 58.98C45.0925 57.7949 43.0718 57 40.5 57V59ZM31.6885 67.1254C31.9842 65.8887 32.6514 63.8256 34.0234 62.0906C35.3678 60.3906 37.3858 59 40.5 59V57C36.6746 57 34.1118 58.7544 32.4546 60.8501C30.825 62.9108 30.07 65.2942 29.7433 66.6603L31.6885 67.1254ZM31.6328 67C31.626 67 31.6421 66.999 31.6612 67.0216C31.6707 67.0329 31.6807 67.0501 31.6864 67.0729C31.6924 67.0972 31.6905 67.1168 31.6885 67.1254L29.7433 66.6603C29.4373 67.9398 30.4544 69 31.6328 69V67ZM40.7959 67H31.6328V69H40.7959V67ZM41.7762 68.1974C42.2445 65.872 43.4612 62.5627 46.576 60.6255L45.5198 58.9271C41.7156 61.2931 40.3276 65.2599 39.8155 67.8026L41.7762 68.1974Z" fill="white"/>
<path d="M53 58C63.3392 58 65.1265 66.5518 65.4354 69.5085C65.4928 70.0578 65.0523 70.5 64.5 70.5H41.5C40.9477 70.5 40.5072 70.0578 40.5646 69.5085C40.8735 66.5518 42.6609 58 53 58Z" stroke="white" stroke-width="2" stroke-linecap="round"/>
<defs>
<linearGradient id="paint0_linear_0_735" x1="-10.5111" y1="47.4216" x2="51.3198" y2="116.786" gradientUnits="userSpaceOnUse">
<stop stop-color="#4FA5D8"/>
<stop offset="1" stop-color="#0855B1"/>
</linearGradient>
</defs>
</svg>
