<svg width="75" height="75" viewBox="0 0 75 75" fill="none" xmlns="http://www.w3.org/2000/svg">
<g filter="url(#filter0_d_0_128)">
<ellipse cx="37.343" cy="35.4348" rx="32.8891" ry="32.8933" fill="#4FA5D8"/>
</g>
<path fill-rule="evenodd" clip-rule="evenodd" d="M32.9157 22.7834H42.7824C47.3227 22.7834 51.0047 26.4659 51.0047 31.0068V40.8748C51.0047 45.4157 47.3227 49.0981 42.7824 49.0981H32.9157C28.3753 49.0981 24.6934 45.4157 24.6934 40.8748V31.0068C24.6934 26.4659 28.3753 22.7834 32.9157 22.7834ZM42.7824 46.6311C45.9562 46.6311 48.538 44.049 48.538 40.8748V31.0068C48.538 27.8326 45.9562 25.2504 42.7824 25.2504H32.9157C29.7419 25.2504 27.1601 27.8326 27.1601 31.0068V40.8748C27.1601 44.049 29.7419 46.6311 32.9157 46.6311H42.7824ZM31.137 35.9408C31.137 32.2336 34.1423 29.2279 37.849 29.2279C41.5558 29.2279 44.5611 32.2336 44.5611 35.9408C44.5611 39.648 41.5558 42.6537 37.849 42.6537C34.1423 42.6537 31.137 39.648 31.137 35.9408ZM33.654 35.9408C33.654 38.2534 35.5367 40.1364 37.849 40.1364C40.1613 40.1364 42.0441 38.2534 42.0441 35.9408C42.0441 33.6265 40.1613 31.7452 37.849 31.7452C35.5367 31.7452 33.654 33.6265 33.654 35.9408ZM44.8296 29.7649C45.2744 29.7649 45.635 29.4042 45.635 28.9593C45.635 28.5144 45.2744 28.1538 44.8296 28.1538C44.3848 28.1538 44.0241 28.5144 44.0241 28.9593C44.0241 29.4042 44.3848 29.7649 44.8296 29.7649Z" fill="white"/>
<defs>
<filter id="filter0_d_0_128" x="0.453918" y="0.541504" width="73.7783" height="73.7866" filterUnits="userSpaceOnUse" color-interpolation-filters="sRGB">
<feFlood flood-opacity="0" result="BackgroundImageFix"/>
<feColorMatrix in="SourceAlpha" type="matrix" values="0 0 0 0 0 0 0 0 0 0 0 0 0 0 0 0 0 0 127 0" result="hardAlpha"/>
<feOffset dy="2"/>
<feGaussianBlur stdDeviation="2"/>
<feColorMatrix type="matrix" values="0 0 0 0 0.941176 0 0 0 0 0.847059 0 0 0 0 0.827451 0 0 0 1 0"/>
<feBlend mode="normal" in2="BackgroundImageFix" result="effect1_dropShadow_0_128"/>
<feBlend mode="normal" in="SourceGraphic" in2="effect1_dropShadow_0_128" result="shape"/>
</filter>
</defs>
</svg>
