<svg width="105" height="105" viewBox="0 0 105 105" fill="none" xmlns="http://www.w3.org/2000/svg">
<circle cx="52.5" cy="52.5" r="52.5" fill="url(#paint0_linear_0_676)"/>
<rect x="30.5" y="38" width="45" height="32.5" rx="2" stroke="white" stroke-width="2"/>
<path d="M40.6471 59.7059H39.2353C39.1261 59.7059 39.0715 59.7059 39.0253 59.7081C37.9933 59.7558 37.1675 60.5816 37.1198 61.6136C37.1177 61.6597 37.1177 61.7143 37.1177 61.8236C37.1177 61.9328 37.1177 61.9874 37.1198 62.0336C37.1675 63.0656 37.9933 63.8914 39.0253 63.9391C39.0715 63.9412 39.1261 63.9412 39.2353 63.9412H40.6471C40.7563 63.9412 40.8109 63.9412 40.8571 63.9391C41.8891 63.8914 42.7149 63.0656 42.7626 62.0336C42.7647 61.9874 42.7647 61.9328 42.7647 61.8236C42.7647 61.7143 42.7647 61.6597 42.7626 61.6136C42.7149 60.5816 41.8891 59.7558 40.8571 59.7081C40.8109 59.7059 40.7563 59.7059 40.6471 59.7059Z" stroke="white" stroke-width="2" stroke-linecap="round"/>
<path d="M30.7647 50.5294L75.5 50.5" stroke="white" stroke-width="2" stroke-linecap="round"/>
<defs>
<linearGradient id="paint0_linear_0_676" x1="-10.5111" y1="47.4216" x2="51.3198" y2="116.786" gradientUnits="userSpaceOnUse">
<stop stop-color="#4FA5D8"/>
<stop offset="1" stop-color="#0855B1"/>
</linearGradient>
</defs>
</svg>
