<svg width="75" height="75" viewBox="0 0 75 75" fill="none" xmlns="http://www.w3.org/2000/svg">
<g filter="url(#filter0_d_0_138)">
<ellipse cx="37.3368" cy="35.4348" rx="32.8891" ry="32.8933" fill="#4FA5D8"/>
</g>
<path fill-rule="evenodd" clip-rule="evenodd" d="M48.9173 25.7406C46.3624 23.1824 42.9647 21.773 39.3449 21.7715C31.8861 21.7715 25.8156 27.8425 25.8126 35.3044C25.8116 37.6897 26.4347 40.0182 27.6189 42.0706L25.6991 49.0837L32.8728 47.2016C34.8494 48.28 37.0748 48.8483 39.3394 48.8489H39.3451C46.8031 48.8489 52.8743 42.7774 52.8771 35.3152C52.8786 31.6988 51.4723 28.2986 48.9173 25.7406ZM39.3449 46.5633H39.3403C37.3221 46.5625 35.3428 46.02 33.6157 44.9953L33.2051 44.7515L28.9482 45.8683L30.0844 41.7173L29.8169 41.2918C28.691 39.5007 28.0964 37.4306 28.0974 35.3052C28.0998 29.1031 33.1455 24.0573 39.3494 24.0573C42.3537 24.0583 45.1777 25.2298 47.3012 27.3561C49.4247 29.4824 50.5934 32.3086 50.5924 35.3144C50.5898 41.517 45.5444 46.5633 39.3449 46.5633ZM43.2039 37.0382C43.5139 37.1513 45.1764 37.9691 45.5144 38.1385C45.5807 38.1717 45.6428 38.2017 45.7002 38.2295C45.9355 38.3432 46.0945 38.42 46.1623 38.5334C46.2469 38.6746 46.2469 39.3515 45.9653 40.1415C45.6832 40.9314 44.3326 41.6523 43.6829 41.7495C43.1002 41.8365 42.3633 41.8729 41.5533 41.6155C41.0621 41.4596 40.4323 41.2517 39.6256 40.903C36.456 39.5343 34.3138 36.4617 33.9088 35.8809C33.8804 35.8402 33.8606 35.8118 33.8495 35.797L33.8465 35.7929C33.6666 35.5527 32.4689 33.9537 32.4689 32.2988C32.4689 30.7412 33.2337 29.9248 33.5859 29.549C33.6101 29.5232 33.6323 29.4994 33.6522 29.4777C33.9622 29.139 34.3286 29.0545 34.5539 29.0545C34.7794 29.0545 35.0049 29.0565 35.202 29.0663C35.2262 29.0675 35.2514 29.0673 35.2775 29.0672C35.4747 29.066 35.7202 29.0646 35.9628 29.6467C36.0555 29.8694 36.1907 30.1989 36.3336 30.5468C36.6252 31.257 36.9485 32.0442 37.0051 32.1577C37.0898 32.3269 37.1463 32.5245 37.0334 32.7502C36.9208 32.9757 36.5542 33.4523 36.1882 33.9069C36.1725 33.9264 36.1564 33.9455 36.1402 33.9647C36.0017 34.1294 35.8634 34.2937 36.0399 34.5971C36.2372 34.9355 36.9158 36.0429 37.9208 36.9395C39.0017 37.9037 39.941 38.3111 40.4169 38.5176C40.5097 38.5578 40.5849 38.5904 40.64 38.6181C40.9782 38.7874 41.1752 38.7591 41.3726 38.5334C41.5699 38.3078 42.2178 37.546 42.4433 37.2076C42.6685 36.8692 42.8942 36.9254 43.2039 37.0382Z" fill="white"/>
<defs>
<filter id="filter0_d_0_138" x="0.447693" y="0.541504" width="73.7783" height="73.7866" filterUnits="userSpaceOnUse" color-interpolation-filters="sRGB">
<feFlood flood-opacity="0" result="BackgroundImageFix"/>
<feColorMatrix in="SourceAlpha" type="matrix" values="0 0 0 0 0 0 0 0 0 0 0 0 0 0 0 0 0 0 127 0" result="hardAlpha"/>
<feOffset dy="2"/>
<feGaussianBlur stdDeviation="2"/>
<feColorMatrix type="matrix" values="0 0 0 0 0.941176 0 0 0 0 0.847059 0 0 0 0 0.827451 0 0 0 1 0"/>
<feBlend mode="normal" in2="BackgroundImageFix" result="effect1_dropShadow_0_138"/>
<feBlend mode="normal" in="SourceGraphic" in2="effect1_dropShadow_0_138" result="shape"/>
</filter>
</defs>
</svg>
