<svg width="31" height="37" viewBox="0 0 31 37" fill="none" xmlns="http://www.w3.org/2000/svg">
<path d="M30.6679 13.2392C30.5293 12.0318 29.8683 10.9279 28.7059 9.9554C28.7084 9.07862 28.5623 5.37244 26.0099 3.31132C25.0988 2.57493 23.9897 2.14228 22.6949 2.00955C18.7139 -0.730523 15.4707 1.40717 14.7379 1.97127C13.6226 1.96233 11.9478 2.13335 10.705 3.07904C9.84591 3.73247 9.32725 4.65519 9.15766 5.88165C9.15766 6.02459 9.2047 6.23134 9.33591 6.43426C8.83334 6.60017 8.4756 6.89499 8.26764 7.31742C7.63014 8.62046 8.73555 10.6114 9.05121 11.1321C8.5573 13.3578 8.68109 14.2538 8.7405 14.5001C8.77888 14.6545 8.89771 14.7757 9.05244 14.8153C9.15395 14.8408 9.22327 14.8995 9.27773 15.0042C9.56987 15.5593 9.26783 16.9875 9.02026 17.7277C8.60063 18.667 8.57958 19.3676 8.95465 19.8105C9.24679 20.1551 9.71222 20.2508 10.1356 20.2508C10.1851 20.2508 10.2346 20.2495 10.2829 20.247C9.94618 21.4709 10.8275 22.6246 11.4328 23.1249L11.5282 23.204H11.6507C12.006 23.204 12.2461 23.278 12.3278 23.4146C12.4268 23.5792 12.3328 23.8906 12.2721 24.017C11.3338 25.9517 10.9959 27.2586 10.9748 27.3505C10.3609 31.4523 15.4658 32.6788 15.5178 32.6903L16.1305 32.8319L15.9238 32.2206C15.5722 31.1818 16.8299 29.7358 17.8932 28.7786L17.835 28.8998L18.6174 28.6497C20.0038 28.2068 20.6301 27.0544 20.8628 25.9479L21.0609 27.0633L21.4929 25.7539C22.2641 23.4197 22.3309 21.6712 21.691 20.5571C21.3543 19.97 20.9025 19.7212 20.6437 19.6203C19.875 17.5069 20.2711 14.0662 20.4618 12.758C21.072 13.2315 21.5895 13.6731 22.0041 14.0751L22.1057 14.1734H22.1292C22.222 14.2448 22.3545 14.3508 22.5129 14.4822C22.732 15.8223 24.3945 26.9829 19.9592 31.9985C19.9419 32.0241 18.2262 34.5166 14.1598 35.826L14.0682 35.8553C7.46675 36.7359 5.81173 32.8358 5.46761 31.6693C6.3601 31.2596 9.26412 29.3593 8.67366 22.1856L8.66499 22.0822L8.60434 21.9992C8.40009 21.7197 7.87524 21.0855 7.37019 21.2322C7.08672 21.3165 6.92209 21.5896 6.88743 22.0133C6.83915 22.28 6.88372 22.6578 7.16471 22.8479C7.41723 23.0177 7.72793 22.9577 8.01883 22.825C8.40133 29.5188 5.44533 30.9099 5.06159 31.0618C4.70756 31.0082 1.20195 30.2833 1.58197 22.8326C1.88153 22.9934 2.20338 23.0789 2.4658 22.9168C2.74927 22.7433 2.80621 22.377 2.77155 22.1741C2.77527 21.7312 2.64034 21.4479 2.36925 21.3318C1.87782 21.1225 1.26508 21.6878 1.0237 21.9405L0.934572 22.0337L0.924669 22.1651C0.325546 30.0778 3.7866 31.4932 4.7645 31.7344C5.05788 32.7681 6.54826 36.704 12.256 36.704C12.8898 36.704 13.5793 36.653 14.322 36.5458C15.0462 36.6785 15.6131 36.7295 16.1181 36.7295C16.7259 36.7295 17.2483 36.6581 17.861 36.5751L18.1086 36.5407C27.5151 34.6135 26.7897 21.2794 26.5458 18.6006C26.6721 18.6121 26.8169 18.6198 26.9754 18.6198C27.5448 18.6198 28.2826 18.5151 28.8817 18.0799C29.4214 17.6868 29.7531 17.1023 29.8683 16.3391C30.0935 16.015 30.8449 14.7987 30.6667 13.2404L30.6679 13.2392ZM7.57568 22.2239C7.57568 22.1919 7.57692 22.1524 7.58311 22.1103C7.58806 22.0503 7.59548 22.0043 7.60291 21.9699C7.65738 22.0069 7.72546 22.0656 7.79602 22.1358C7.68956 22.1907 7.619 22.2136 7.57568 22.2239ZM2.06721 22.0248C2.0734 22.0656 2.07835 22.1281 2.07835 22.22C2.08083 22.2353 2.08083 22.2519 2.08083 22.2698C2.03379 22.2558 1.95828 22.2251 1.84935 22.16C1.93229 22.0988 2.00903 22.0516 2.06721 22.026V22.0248ZM27.988 9.41938C27.1549 8.86549 26.0544 8.31161 24.85 7.8445C24.7089 7.57139 24.5541 7.3021 24.3833 7.03537C23.2247 5.23077 21.5263 3.87669 19.3155 2.98843C21.9918 2.38477 24.0949 2.68085 25.5766 3.87669C27.5052 5.43114 27.9075 8.14952 27.988 9.41938ZM21.2342 1.98148C20.2724 2.03763 19.2264 2.23162 18.0999 2.56216C17.4179 2.35541 16.6962 2.18568 15.9312 2.05422C15.93 2.05422 15.9263 2.05422 15.9238 2.05422C16.9809 1.49013 18.9095 0.8686 21.2342 1.98148ZM11.4168 7.13619C11.621 7.24467 12.0171 7.45525 12.5444 7.74496C11.8339 7.77176 11.2583 7.97723 10.8053 8.24907C11.0479 7.75772 11.2744 7.36081 11.4168 7.13619ZM9.29506 10.092C8.93237 9.32494 8.58206 8.2746 8.89276 7.64031C9.07596 7.26765 9.50426 7.05451 10.1504 7.00729L10.169 7.0124C10.3052 7.05196 10.4574 7.07749 10.6196 7.09408C10.2717 7.70157 9.79021 8.66512 9.43618 9.66697C9.42256 9.69249 9.4139 9.71036 9.41018 9.71802L9.38419 9.78821C9.37057 9.83671 9.35943 9.88393 9.34582 9.93115C9.32849 9.98475 9.31116 10.0384 9.29383 10.092H9.29506ZM9.48074 19.3357C9.30868 19.1315 9.37057 18.667 9.6689 17.9919C9.74812 17.757 10.4252 15.6729 9.89171 14.6596C9.77411 14.4363 9.60453 14.2716 9.39533 14.1759C9.35572 13.7969 9.34334 12.6725 10.013 10.1456C10.0328 10.0843 10.0539 10.0243 10.0749 9.96305C10.3064 9.55211 11.5603 7.65945 14.5262 8.85784C14.5362 8.86294 14.5448 8.86804 14.5547 8.87443C15.0536 9.07607 15.5784 9.35684 16.1194 9.71036C16.3484 9.8584 16.5823 10.0218 16.8237 10.2004C16.8633 10.2298 17.0874 10.3829 17.403 10.5973C18.9256 15.8835 15.2851 20.5469 15.2479 20.5928L15.139 20.7294L15.1774 20.9017C15.2875 21.393 15.1947 21.7593 15.0759 22.0018C13.3986 19.1762 11.4465 19.3179 10.9105 19.42V19.4161C10.8919 19.4212 10.8721 19.4276 10.8511 19.4327C10.8263 19.4378 10.8065 19.4429 10.7929 19.4468C10.4364 19.531 9.72089 19.6165 9.48198 19.3332L9.48074 19.3357ZM20.3169 20.2648C20.3355 20.2687 20.7849 20.3695 21.1042 20.9438C21.4063 21.4862 21.6254 22.5161 21.1513 24.4254C21.0646 24.2467 20.9606 24.0795 20.8393 23.9532L20.104 23.1951L20.2464 24.2582C20.2612 24.3679 20.5559 26.7226 18.985 27.6976V27.0225L18.4354 27.4181C18.0715 27.6798 15.1687 29.8366 15.1662 31.839C13.9952 31.451 11.2496 30.2386 11.6594 27.4947C11.6631 27.4819 11.9948 26.1993 12.8972 24.3399C12.9344 24.2646 13.2525 23.5881 12.9257 23.0368C12.7227 22.6948 12.3402 22.5085 11.7856 22.4829C11.4799 22.1971 10.5106 21.1735 11.0875 20.1193C11.5542 20.0479 13.2513 19.9994 14.7218 22.816L14.9187 23.1925L15.2454 22.9283C15.2813 22.899 16.1008 22.2175 15.8904 20.9132C16.4845 20.113 19.2635 16.0418 18.2658 11.1831C18.8389 11.5749 19.4554 11.9999 19.8292 12.273C19.6695 13.2251 19.0345 17.5107 20.0595 20.0466L20.135 20.224L20.3169 20.2623V20.2648ZM20.2551 11.7051C19.6807 11.284 18.5196 10.4952 17.8264 10.0243C17.5082 9.80863 17.2805 9.65421 17.2347 9.61975C16.9772 9.42831 16.7321 9.2573 16.492 9.10287C15.9164 8.72638 15.3507 8.42392 14.8469 8.22227C14.832 8.21334 14.8171 8.2044 14.8011 8.19547C14.8011 8.19547 14.7998 8.19547 14.7986 8.19419C12.9789 7.14257 11.5888 6.41767 11.5752 6.41002L11.4328 6.36918L11.2447 6.38321C11.2212 6.38449 11.2001 6.38577 11.1766 6.38704C11.1481 6.38194 11.1197 6.37939 11.0912 6.38066C10.7099 6.39598 10.4562 6.34237 10.3163 6.29771L10.2532 6.27856H10.2433C9.88057 6.1318 9.86324 5.90463 9.85334 5.92505C9.99074 4.95638 10.4178 4.19447 11.1197 3.65845C12.8737 2.32096 15.7938 2.76253 15.8198 2.76636C19.5321 3.40065 22.2171 4.97042 23.8003 7.43356C25.8477 10.6203 25.5098 14.5282 25.2473 16.1541C24.4588 15.1803 23.0724 13.9181 22.4807 13.5531L22.4857 13.548C21.9138 12.9941 21.1649 12.3751 20.2563 11.7051H20.2551ZM17.9984 35.8272L17.7731 35.8579C17.0453 35.9574 16.4784 36.0353 15.7431 35.997C19.0655 34.5638 20.4692 32.5065 20.5076 32.4439C24.6705 27.741 23.7594 18.2611 23.3311 15.1854C24.012 15.8031 24.7646 16.565 25.1013 17.17L25.1508 17.2299L25.8167 18.3033C25.9517 19.4723 27.4024 33.9001 17.9984 35.8272ZM29.2642 15.9703L29.2035 16.0494L29.1911 16.149C29.1156 16.7577 28.8842 17.1955 28.4843 17.4865C27.7763 18.0033 26.7365 17.9051 26.3651 17.8502L25.8081 16.9517C26.0259 15.9818 26.6882 12.3152 25.2832 8.7953C26.4493 9.29686 27.4631 9.86606 28.1402 10.4097C29.2332 11.284 29.8497 12.2616 29.9735 13.3157C30.148 14.8 29.2728 15.9601 29.2642 15.9716V15.9703ZM12.0382 16.2115C11.9602 16.0405 11.8921 15.6768 12.1298 15.396C12.4875 14.9697 13.2847 14.985 14.7144 15.4407L14.5077 16.1286C12.9282 15.6244 12.6583 15.8669 12.6571 15.8695L12.0394 16.2115H12.0382Z" fill="white"/>
</svg>
