<svg width="1215" height="308" viewBox="0 0 1215 308" fill="none" xmlns="http://www.w3.org/2000/svg">
<g filter="url(#filter0_d_0_1847)">
<g clip-path="url(#clip0_0_1847)">
<path d="M115.543 113.48C111.223 113.48 107.383 112.36 104.023 110.12C100.663 107.827 98.0225 104.573 96.1025 100.36C94.1825 96.0933 93.2225 90.9733 93.2225 85C93.2225 79.0267 94.1825 73.9333 96.1025 69.72C98.0225 65.4533 100.663 62.2 104.023 59.96C107.383 57.6667 111.223 56.52 115.543 56.52C119.863 56.52 123.703 57.6667 127.063 59.96C130.423 62.2 133.063 65.4533 134.983 69.72C136.956 73.9333 137.943 79.0267 137.943 85C137.943 90.9733 136.956 96.0933 134.983 100.36C133.063 104.573 130.423 107.827 127.063 110.12C123.703 112.36 119.863 113.48 115.543 113.48ZM115.543 108.2C118.849 108.2 121.729 107.32 124.183 105.56C126.636 103.747 128.556 101.133 129.943 97.72C131.329 94.2533 132.023 90.0133 132.023 85C132.023 79.9867 131.329 75.7733 129.943 72.36C128.556 68.8933 126.636 66.28 124.183 64.52C121.729 62.7067 118.849 61.8 115.543 61.8C112.343 61.8 109.489 62.7067 106.983 64.52C104.476 66.28 102.529 68.8933 101.143 72.36C99.7558 75.7733 99.0625 79.9867 99.0625 85C99.0625 90.0133 99.7558 94.2533 101.143 97.72C102.529 101.133 104.476 103.747 106.983 105.56C109.489 107.32 112.343 108.2 115.543 108.2ZM155.951 113V59.4L158.511 62.12H142.751V57H161.711V113H155.951Z" fill="#696975"/>
<path d="M54.5338 140.108C53.5858 140.108 52.7038 139.952 51.8878 139.64C51.0838 139.316 50.3818 138.866 49.7818 138.29C49.1938 137.702 48.7318 137.024 48.3958 136.256C48.0718 135.476 47.9098 134.624 47.9098 133.7C47.9098 132.776 48.0718 131.93 48.3958 131.162C48.7318 130.382 49.1938 129.704 49.7818 129.128C50.3818 128.54 51.0838 128.09 51.8878 127.778C52.6918 127.454 53.5738 127.292 54.5338 127.292C55.4818 127.292 56.3578 127.454 57.1618 127.778C57.9658 128.09 58.6618 128.534 59.2498 129.11C59.8498 129.686 60.3118 130.364 60.6358 131.144C60.9718 131.924 61.1398 132.776 61.1398 133.7C61.1398 134.624 60.9718 135.476 60.6358 136.256C60.3118 137.036 59.8498 137.714 59.2498 138.29C58.6618 138.866 57.9658 139.316 57.1618 139.64C56.3578 139.952 55.4818 140.108 54.5338 140.108ZM54.5338 138.92C55.2898 138.92 55.9858 138.794 56.6218 138.542C57.2698 138.278 57.8278 137.912 58.2958 137.444C58.7758 136.964 59.1478 136.412 59.4118 135.788C59.6758 135.152 59.8078 134.456 59.8078 133.7C59.8078 132.944 59.6758 132.254 59.4118 131.63C59.1478 130.994 58.7758 130.442 58.2958 129.974C57.8278 129.494 57.2698 129.128 56.6218 128.876C55.9858 128.612 55.2898 128.48 54.5338 128.48C53.7778 128.48 53.0758 128.612 52.4278 128.876C51.7798 129.128 51.2158 129.494 50.7358 129.974C50.2678 130.442 49.8958 130.994 49.6198 131.63C49.3558 132.254 49.2238 132.944 49.2238 133.7C49.2238 134.444 49.3558 135.134 49.6198 135.77C49.8958 136.406 50.2678 136.964 50.7358 137.444C51.2158 137.912 51.7798 138.278 52.4278 138.542C53.0758 138.794 53.7778 138.92 54.5338 138.92ZM68.2603 140.108C67.4923 140.108 66.8083 139.982 66.2083 139.73C65.6203 139.478 65.1163 139.094 64.6963 138.578C64.2763 138.062 63.9583 137.426 63.7423 136.67C63.5263 135.902 63.4183 135.014 63.4183 134.006C63.4183 133.106 63.5023 132.32 63.6703 131.648C63.8383 130.964 64.0723 130.376 64.3723 129.884C64.6723 129.392 65.0203 128.978 65.4163 128.642C65.8243 128.294 66.2623 128.018 66.7303 127.814C67.2103 127.598 67.7023 127.436 68.2063 127.328L72.4543 126.338L72.6703 127.526L68.6743 128.426C68.4223 128.486 68.1163 128.57 67.7563 128.678C67.4083 128.786 67.0483 128.948 66.6763 129.164C66.3163 129.38 65.9803 129.68 65.6683 130.064C65.3563 130.448 65.1043 130.946 64.9123 131.558C64.7323 132.158 64.6423 132.908 64.6423 133.808C64.6423 134 64.6483 134.156 64.6603 134.276C64.6723 134.384 64.6843 134.504 64.6963 134.636C64.7203 134.756 64.7383 134.936 64.7503 135.176L64.1923 134.708C64.3243 133.976 64.5943 133.34 65.0023 132.8C65.4103 132.248 65.9203 131.822 66.5323 131.522C67.1563 131.21 67.8463 131.054 68.6023 131.054C69.4783 131.054 70.2583 131.246 70.9423 131.63C71.6263 132.002 72.1603 132.524 72.5443 133.196C72.9403 133.868 73.1383 134.648 73.1383 135.536C73.1383 136.412 72.9343 137.198 72.5263 137.894C72.1303 138.59 71.5663 139.136 70.8343 139.532C70.1023 139.916 69.2443 140.108 68.2603 140.108ZM68.4043 139.046C69.0763 139.046 69.6703 138.896 70.1863 138.596C70.7023 138.284 71.1043 137.864 71.3923 137.336C71.6923 136.808 71.8423 136.214 71.8423 135.554C71.8423 134.906 71.6923 134.33 71.3923 133.826C71.1043 133.322 70.7023 132.926 70.1863 132.638C69.6703 132.338 69.0703 132.188 68.3863 132.188C67.7143 132.188 67.1203 132.332 66.6043 132.62C66.0883 132.896 65.6803 133.286 65.3803 133.79C65.0923 134.294 64.9483 134.876 64.9483 135.536C64.9483 136.196 65.0923 136.79 65.3803 137.318C65.6803 137.846 66.0883 138.266 66.6043 138.578C67.1323 138.89 67.7323 139.046 68.4043 139.046ZM82.0876 138.884L81.7996 139.226V130.55H83.0776V139.226L82.7356 138.884H88.0096L87.6676 139.226V130.55H88.9456V140H75.8776V130.55H77.1556V139.226L76.8316 138.884H82.0876ZM89.1976 142.07V139.658L89.5216 140H87.5956V138.884H90.4036V142.07H89.1976ZM96.6268 140.09C95.6428 140.09 94.7788 139.886 94.0348 139.478C93.2908 139.058 92.7088 138.488 92.2888 137.768C91.8688 137.036 91.6588 136.202 91.6588 135.266C91.6588 134.33 91.8568 133.502 92.2528 132.782C92.6608 132.062 93.2128 131.498 93.9088 131.09C94.6168 130.67 95.4088 130.46 96.2848 130.46C97.1728 130.46 97.9588 130.664 98.6428 131.072C99.3388 131.468 99.8848 132.032 100.281 132.764C100.677 133.484 100.875 134.318 100.875 135.266C100.875 135.326 100.869 135.392 100.857 135.464C100.857 135.524 100.857 135.59 100.857 135.662H92.6308V134.708H100.173L99.6688 135.086C99.6688 134.402 99.5188 133.796 99.2188 133.268C98.9308 132.728 98.5348 132.308 98.0308 132.008C97.5268 131.708 96.9448 131.558 96.2848 131.558C95.6368 131.558 95.0548 131.708 94.5388 132.008C94.0228 132.308 93.6208 132.728 93.3328 133.268C93.0448 133.808 92.9008 134.426 92.9008 135.122V135.32C92.9008 136.04 93.0568 136.676 93.3688 137.228C93.6928 137.768 94.1368 138.194 94.7008 138.506C95.2768 138.806 95.9308 138.956 96.6628 138.956C97.2388 138.956 97.7728 138.854 98.2648 138.65C98.7688 138.446 99.2008 138.134 99.5608 137.714L100.281 138.542C99.8608 139.046 99.3328 139.43 98.6968 139.694C98.0728 139.958 97.3828 140.09 96.6268 140.09ZM103.704 140V130.55H104.982V134.726H110.94V130.55H112.218V140H110.94V135.824H104.982V140H103.704ZM115.85 140V130.55H117.128V138.056L123.446 130.55H124.58V140H123.302V132.476L117.002 140H115.85ZM132.293 140.09C131.309 140.09 130.445 139.886 129.701 139.478C128.957 139.058 128.375 138.488 127.955 137.768C127.535 137.036 127.325 136.202 127.325 135.266C127.325 134.33 127.523 133.502 127.919 132.782C128.327 132.062 128.879 131.498 129.575 131.09C130.283 130.67 131.075 130.46 131.951 130.46C132.839 130.46 133.625 130.664 134.309 131.072C135.005 131.468 135.551 132.032 135.947 132.764C136.343 133.484 136.541 134.318 136.541 135.266C136.541 135.326 136.535 135.392 136.523 135.464C136.523 135.524 136.523 135.59 136.523 135.662H128.297V134.708H135.839L135.335 135.086C135.335 134.402 135.185 133.796 134.885 133.268C134.597 132.728 134.201 132.308 133.697 132.008C133.193 131.708 132.611 131.558 131.951 131.558C131.303 131.558 130.721 131.708 130.205 132.008C129.689 132.308 129.287 132.728 128.999 133.268C128.711 133.808 128.567 134.426 128.567 135.122V135.32C128.567 136.04 128.723 136.676 129.035 137.228C129.359 137.768 129.803 138.194 130.367 138.506C130.943 138.806 131.597 138.956 132.329 138.956C132.905 138.956 133.439 138.854 133.931 138.65C134.435 138.446 134.867 138.134 135.227 137.714L135.947 138.542C135.527 139.046 134.999 139.43 134.363 139.694C133.739 139.958 133.049 140.09 132.293 140.09ZM148.041 140.09C147.105 140.09 146.265 139.886 145.521 139.478C144.789 139.058 144.213 138.488 143.793 137.768C143.373 137.036 143.163 136.202 143.163 135.266C143.163 134.318 143.373 133.484 143.793 132.764C144.213 132.044 144.789 131.48 145.521 131.072C146.265 130.664 147.105 130.46 148.041 130.46C148.845 130.46 149.571 130.616 150.219 130.928C150.867 131.24 151.377 131.708 151.749 132.332L150.795 132.98C150.471 132.5 150.069 132.146 149.589 131.918C149.109 131.69 148.587 131.576 148.023 131.576C147.351 131.576 146.745 131.732 146.205 132.044C145.665 132.344 145.239 132.77 144.927 133.322C144.615 133.874 144.459 134.522 144.459 135.266C144.459 136.01 144.615 136.658 144.927 137.21C145.239 137.762 145.665 138.194 146.205 138.506C146.745 138.806 147.351 138.956 148.023 138.956C148.587 138.956 149.109 138.842 149.589 138.614C150.069 138.386 150.471 138.038 150.795 137.57L151.749 138.218C151.377 138.83 150.867 139.298 150.219 139.622C149.571 139.934 148.845 140.09 148.041 140.09ZM41.458 163V150.4H42.772V160.84L50.836 150.4H52.042V163H50.728V152.578L42.664 163H41.458ZM56.2939 163V150.4H57.6079V160.84L65.6719 150.4H66.8779V163H65.5639V152.578L57.4999 163H56.2939ZM82.0148 162.388V154.666H77.4608L77.3528 156.772C77.3288 157.408 77.2868 158.032 77.2268 158.644C77.1788 159.256 77.0888 159.82 76.9568 160.336C76.8368 160.84 76.6628 161.254 76.4348 161.578C76.2068 161.89 75.9128 162.07 75.5528 162.118L74.2748 161.884C74.6468 161.896 74.9528 161.764 75.1928 161.488C75.4328 161.2 75.6188 160.81 75.7508 160.318C75.8828 159.826 75.9788 159.268 76.0388 158.644C76.0988 158.008 76.1468 157.36 76.1828 156.7L76.3088 153.55H83.2928V162.388H82.0148ZM73.8788 165.286V161.884H84.7688V165.286H83.5628V163H75.0848V165.286H73.8788ZM91.1474 163.09C90.2354 163.09 89.4134 162.886 88.6814 162.478C87.9614 162.058 87.3914 161.488 86.9714 160.768C86.5514 160.036 86.3414 159.202 86.3414 158.266C86.3414 157.318 86.5514 156.484 86.9714 155.764C87.3914 155.044 87.9614 154.48 88.6814 154.072C89.4014 153.664 90.2234 153.46 91.1474 153.46C92.0834 153.46 92.9114 153.664 93.6314 154.072C94.3634 154.48 94.9334 155.044 95.3414 155.764C95.7614 156.484 95.9714 157.318 95.9714 158.266C95.9714 159.202 95.7614 160.036 95.3414 160.768C94.9334 161.488 94.3634 162.058 93.6314 162.478C92.8994 162.886 92.0714 163.09 91.1474 163.09ZM91.1474 161.956C91.8314 161.956 92.4374 161.806 92.9654 161.506C93.4934 161.194 93.9074 160.762 94.2074 160.21C94.5194 159.646 94.6754 158.998 94.6754 158.266C94.6754 157.522 94.5194 156.874 94.2074 156.322C93.9074 155.77 93.4934 155.344 92.9654 155.044C92.4374 154.732 91.8374 154.576 91.1654 154.576C90.4934 154.576 89.8934 154.732 89.3654 155.044C88.8374 155.344 88.4174 155.77 88.1054 156.322C87.7934 156.874 87.6374 157.522 87.6374 158.266C87.6374 158.998 87.7934 159.646 88.1054 160.21C88.4174 160.762 88.8374 161.194 89.3654 161.506C89.8934 161.806 90.4874 161.956 91.1474 161.956ZM105.633 163L101.745 158.32L102.807 157.69L107.145 163H105.633ZM98.7028 163V153.55H99.9808V163H98.7028ZM99.5848 158.788V157.69H102.627V158.788H99.5848ZM102.915 158.41L101.727 158.23L105.489 153.55H106.875L102.915 158.41ZM110.768 163V154.324L111.092 154.666H107.186V153.55H115.628V154.666H111.722L112.046 154.324V163H110.768ZM120.925 163.09C120.013 163.09 119.191 162.886 118.459 162.478C117.739 162.058 117.169 161.488 116.749 160.768C116.329 160.036 116.119 159.202 116.119 158.266C116.119 157.318 116.329 156.484 116.749 155.764C117.169 155.044 117.739 154.48 118.459 154.072C119.179 153.664 120.001 153.46 120.925 153.46C121.861 153.46 122.689 153.664 123.409 154.072C124.141 154.48 124.711 155.044 125.119 155.764C125.539 156.484 125.749 157.318 125.749 158.266C125.749 159.202 125.539 160.036 125.119 160.768C124.711 161.488 124.141 162.058 123.409 162.478C122.677 162.886 121.849 163.09 120.925 163.09ZM120.925 161.956C121.609 161.956 122.215 161.806 122.743 161.506C123.271 161.194 123.685 160.762 123.985 160.21C124.297 159.646 124.453 158.998 124.453 158.266C124.453 157.522 124.297 156.874 123.985 156.322C123.685 155.77 123.271 155.344 122.743 155.044C122.215 154.732 121.615 154.576 120.943 154.576C120.271 154.576 119.671 154.732 119.143 155.044C118.615 155.344 118.195 155.77 117.883 156.322C117.571 156.874 117.415 157.522 117.415 158.266C117.415 158.998 117.571 159.646 117.883 160.21C118.195 160.762 118.615 161.194 119.143 161.506C119.671 161.806 120.265 161.956 120.925 161.956ZM133.358 163.09C132.542 163.09 131.804 162.904 131.144 162.532C130.484 162.148 129.956 161.602 129.56 160.894C129.176 160.174 128.984 159.298 128.984 158.266C128.984 157.234 129.176 156.364 129.56 155.656C129.944 154.936 130.466 154.39 131.126 154.018C131.786 153.646 132.53 153.46 133.358 153.46C134.258 153.46 135.062 153.664 135.77 154.072C136.49 154.468 137.054 155.032 137.462 155.764C137.87 156.484 138.074 157.318 138.074 158.266C138.074 159.226 137.87 160.066 137.462 160.786C137.054 161.506 136.49 162.07 135.77 162.478C135.062 162.886 134.258 163.09 133.358 163.09ZM128.48 166.492V153.55H129.704V156.394L129.578 158.284L129.758 160.192V166.492H128.48ZM133.268 161.956C133.94 161.956 134.54 161.806 135.068 161.506C135.596 161.194 136.016 160.762 136.328 160.21C136.64 159.646 136.796 158.998 136.796 158.266C136.796 157.534 136.64 156.892 136.328 156.34C136.016 155.788 135.596 155.356 135.068 155.044C134.54 154.732 133.94 154.576 133.268 154.576C132.596 154.576 131.99 154.732 131.45 155.044C130.922 155.356 130.502 155.788 130.19 156.34C129.89 156.892 129.74 157.534 129.74 158.266C129.74 158.998 129.89 159.646 130.19 160.21C130.502 160.762 130.922 161.194 131.45 161.506C131.99 161.806 132.596 161.956 133.268 161.956ZM144.708 163.09C143.796 163.09 142.974 162.886 142.242 162.478C141.522 162.058 140.952 161.488 140.532 160.768C140.112 160.036 139.902 159.202 139.902 158.266C139.902 157.318 140.112 156.484 140.532 155.764C140.952 155.044 141.522 154.48 142.242 154.072C142.962 153.664 143.784 153.46 144.708 153.46C145.644 153.46 146.472 153.664 147.192 154.072C147.924 154.48 148.494 155.044 148.902 155.764C149.322 156.484 149.532 157.318 149.532 158.266C149.532 159.202 149.322 160.036 148.902 160.768C148.494 161.488 147.924 162.058 147.192 162.478C146.46 162.886 145.632 163.09 144.708 163.09ZM144.708 161.956C145.392 161.956 145.998 161.806 146.526 161.506C147.054 161.194 147.468 160.762 147.768 160.21C148.08 159.646 148.236 158.998 148.236 158.266C148.236 157.522 148.08 156.874 147.768 156.322C147.468 155.77 147.054 155.344 146.526 155.044C145.998 154.732 145.398 154.576 144.726 154.576C144.054 154.576 143.454 154.732 142.926 155.044C142.398 155.344 141.978 155.77 141.666 156.322C141.354 156.874 141.198 157.522 141.198 158.266C141.198 158.998 141.354 159.646 141.666 160.21C141.978 160.762 142.398 161.194 142.926 161.506C143.454 161.806 144.048 161.956 144.708 161.956ZM152.263 163V153.55H153.559L157.843 160.804H157.303L161.659 153.55H162.847V163H161.677V155.008L161.911 155.116L157.843 161.848H157.267L153.163 155.044L153.433 154.99V163H152.263Z" fill="white"/>
<path fill-rule="evenodd" clip-rule="evenodd" d="M66.1634 93.2153L54.195 96.2078L50.3905 84.4722L38.5293 81.0796L41.1023 69.0141L32.5265 60.1454L40.7876 50.9828L37.7951 39.0144L49.5306 35.2099L52.9233 23.3487L64.9888 25.9217L73.8575 17.3459L83.0201 25.6069L94.9885 22.6144L98.793 34.35L110.654 37.7426L108.081 49.8082L116.657 58.6769L108.396 67.8395L111.388 79.8079L99.6529 83.6124L96.2603 95.4736L84.1947 92.9006L75.326 101.476L66.1634 93.2153Z" fill="url(#paint0_linear_0_1847)"/>
</g>
<g clip-path="url(#clip1_0_1847)">
<path d="M456.761 209.48C452.441 209.48 448.601 208.36 445.241 206.12C441.881 203.827 439.241 200.573 437.321 196.36C435.401 192.093 434.441 186.973 434.441 181C434.441 175.027 435.401 169.933 437.321 165.72C439.241 161.453 441.881 158.2 445.241 155.96C448.601 153.667 452.441 152.52 456.761 152.52C461.081 152.52 464.921 153.667 468.281 155.96C471.641 158.2 474.281 161.453 476.201 165.72C478.175 169.933 479.161 175.027 479.161 181C479.161 186.973 478.175 192.093 476.201 196.36C474.281 200.573 471.641 203.827 468.281 206.12C464.921 208.36 461.081 209.48 456.761 209.48ZM456.761 204.2C460.068 204.2 462.948 203.32 465.401 201.56C467.855 199.747 469.775 197.133 471.161 193.72C472.548 190.253 473.241 186.013 473.241 181C473.241 175.987 472.548 171.773 471.161 168.36C469.775 164.893 467.855 162.28 465.401 160.52C462.948 158.707 460.068 157.8 456.761 157.8C453.561 157.8 450.708 158.707 448.201 160.52C445.695 162.28 443.748 164.893 442.361 168.36C440.975 171.773 440.281 175.987 440.281 181C440.281 186.013 440.975 190.253 442.361 193.72C443.748 197.133 445.695 199.747 448.201 201.56C450.708 203.32 453.561 204.2 456.761 204.2ZM486.37 209V204.92L509.65 182.12C511.783 180.04 513.383 178.227 514.45 176.68C515.517 175.08 516.237 173.587 516.61 172.2C516.983 170.813 517.17 169.507 517.17 168.28C517.17 165.027 516.05 162.467 513.81 160.6C511.623 158.733 508.37 157.8 504.05 157.8C500.743 157.8 497.81 158.307 495.25 159.32C492.743 160.333 490.583 161.907 488.77 164.04L484.69 160.52C486.877 157.96 489.677 155.987 493.09 154.6C496.503 153.213 500.317 152.52 504.53 152.52C508.317 152.52 511.597 153.133 514.37 154.36C517.143 155.533 519.277 157.267 520.77 159.56C522.317 161.853 523.09 164.547 523.09 167.64C523.09 169.453 522.823 171.24 522.29 173C521.81 174.76 520.903 176.627 519.57 178.6C518.29 180.52 516.397 182.707 513.89 185.16L492.53 206.12L490.93 203.88H525.65V209H486.37Z" fill="#696975"/>
<path d="M426.94 236.136C425.44 236.136 424.156 235.926 423.088 235.506C422.02 235.074 421.198 234.45 420.622 233.634C420.046 232.818 419.758 231.834 419.758 230.682C419.758 229.53 420.046 228.552 420.622 227.748C421.198 226.932 422.02 226.308 423.088 225.876C424.156 225.444 425.44 225.228 426.94 225.228C426.952 225.228 426.982 225.228 427.03 225.228C427.078 225.228 427.126 225.228 427.174 225.228C427.222 225.228 427.252 225.228 427.264 225.228C428.776 225.228 430.066 225.444 431.134 225.876C432.202 226.308 433.024 226.932 433.6 227.748C434.176 228.552 434.464 229.53 434.464 230.682C434.464 231.834 434.176 232.818 433.6 233.634C433.036 234.45 432.22 235.074 431.152 235.506C430.084 235.926 428.806 236.136 427.318 236.136C427.294 236.136 427.252 236.136 427.192 236.136C427.144 236.136 427.09 236.136 427.03 236.136C426.982 236.136 426.952 236.136 426.94 236.136ZM427.084 235.092C427.108 235.092 427.132 235.092 427.156 235.092C427.18 235.092 427.198 235.092 427.21 235.092C428.47 235.08 429.544 234.906 430.432 234.57C431.332 234.222 432.016 233.724 432.484 233.076C432.952 232.416 433.186 231.618 433.186 230.682C433.186 229.734 432.946 228.936 432.466 228.288C431.998 227.64 431.32 227.148 430.432 226.812C429.556 226.464 428.494 226.29 427.246 226.29C427.234 226.29 427.21 226.29 427.174 226.29C427.138 226.29 427.108 226.29 427.084 226.29C425.812 226.29 424.726 226.458 423.826 226.794C422.926 227.13 422.236 227.628 421.756 228.288C421.276 228.936 421.036 229.734 421.036 230.682C421.036 231.642 421.276 232.452 421.756 233.112C422.248 233.76 422.944 234.252 423.844 234.588C424.756 234.924 425.836 235.092 427.084 235.092ZM426.49 237.432V223.968H427.732V237.432H426.49ZM441.07 237.09C440.158 237.09 439.336 236.886 438.604 236.478C437.884 236.058 437.314 235.488 436.894 234.768C436.474 234.036 436.264 233.202 436.264 232.266C436.264 231.318 436.474 230.484 436.894 229.764C437.314 229.044 437.884 228.48 438.604 228.072C439.324 227.664 440.146 227.46 441.07 227.46C442.006 227.46 442.834 227.664 443.554 228.072C444.286 228.48 444.856 229.044 445.264 229.764C445.684 230.484 445.894 231.318 445.894 232.266C445.894 233.202 445.684 234.036 445.264 234.768C444.856 235.488 444.286 236.058 443.554 236.478C442.822 236.886 441.994 237.09 441.07 237.09ZM441.07 235.956C441.754 235.956 442.36 235.806 442.888 235.506C443.416 235.194 443.83 234.762 444.13 234.21C444.442 233.646 444.598 232.998 444.598 232.266C444.598 231.522 444.442 230.874 444.13 230.322C443.83 229.77 443.416 229.344 442.888 229.044C442.36 228.732 441.76 228.576 441.088 228.576C440.416 228.576 439.816 228.732 439.288 229.044C438.76 229.344 438.34 229.77 438.028 230.322C437.716 230.874 437.56 231.522 437.56 232.266C437.56 232.998 437.716 233.646 438.028 234.21C438.34 234.762 438.76 235.194 439.288 235.506C439.816 235.806 440.41 235.956 441.07 235.956ZM453.504 237.09C452.688 237.09 451.95 236.904 451.29 236.532C450.63 236.148 450.102 235.602 449.706 234.894C449.322 234.174 449.13 233.298 449.13 232.266C449.13 231.234 449.322 230.364 449.706 229.656C450.09 228.936 450.612 228.39 451.272 228.018C451.932 227.646 452.676 227.46 453.504 227.46C454.404 227.46 455.208 227.664 455.916 228.072C456.636 228.468 457.2 229.032 457.608 229.764C458.016 230.484 458.22 231.318 458.22 232.266C458.22 233.226 458.016 234.066 457.608 234.786C457.2 235.506 456.636 236.07 455.916 236.478C455.208 236.886 454.404 237.09 453.504 237.09ZM448.626 240.492V227.55H449.85V230.394L449.724 232.284L449.904 234.192V240.492H448.626ZM453.414 235.956C454.086 235.956 454.686 235.806 455.214 235.506C455.742 235.194 456.162 234.762 456.474 234.21C456.786 233.646 456.942 232.998 456.942 232.266C456.942 231.534 456.786 230.892 456.474 230.34C456.162 229.788 455.742 229.356 455.214 229.044C454.686 228.732 454.086 228.576 453.414 228.576C452.742 228.576 452.136 228.732 451.596 229.044C451.068 229.356 450.648 229.788 450.336 230.34C450.036 230.892 449.886 231.534 449.886 232.266C449.886 232.998 450.036 233.646 450.336 234.21C450.648 234.762 451.068 235.194 451.596 235.506C452.136 235.806 452.742 235.956 453.414 235.956ZM460.864 240.582C460.42 240.582 459.994 240.51 459.586 240.366C459.19 240.222 458.848 240.006 458.56 239.718L459.154 238.764C459.394 238.992 459.652 239.166 459.928 239.286C460.216 239.418 460.534 239.484 460.882 239.484C461.302 239.484 461.662 239.364 461.962 239.124C462.274 238.896 462.568 238.488 462.844 237.9L463.456 236.514L463.6 236.316L467.488 227.55H468.748L464.014 238.134C463.75 238.746 463.456 239.232 463.132 239.592C462.82 239.952 462.478 240.204 462.106 240.348C461.734 240.504 461.32 240.582 460.864 240.582ZM463.384 237.27L459.028 227.55H460.36L464.212 236.226L463.384 237.27ZM470.739 237V227.55H472.035L476.319 234.804H475.779L480.135 227.55H481.323V237H480.153V229.008L480.387 229.116L476.319 235.848H475.743L471.639 229.044L471.909 228.99V237H470.739Z" fill="white"/>
<path fill-rule="evenodd" clip-rule="evenodd" d="M405.171 191.187L393.195 194.208L389.411 182.451L377.529 179.08L380.131 167.006L371.527 158.145L379.816 148.99L376.795 137.014L388.552 133.231L391.923 121.349L403.997 123.95L412.858 115.346L422.013 123.636L433.989 120.614L437.772 132.371L449.654 135.743L447.053 147.816L455.657 156.677L447.367 165.832L450.388 177.808L438.632 181.592L435.26 193.474L423.187 190.872L414.326 199.476L405.171 191.187Z" fill="url(#paint1_linear_0_1847)"/>
</g>
<g clip-path="url(#clip2_0_1847)">
<path d="M776.808 113.48C772.488 113.48 768.648 112.36 765.288 110.12C761.928 107.827 759.288 104.573 757.368 100.36C755.448 96.0933 754.488 90.9733 754.488 85C754.488 79.0267 755.448 73.9333 757.368 69.72C759.288 65.4533 761.928 62.2 765.288 59.96C768.648 57.6667 772.488 56.52 776.808 56.52C781.128 56.52 784.968 57.6667 788.328 59.96C791.688 62.2 794.328 65.4533 796.248 69.72C798.221 73.9333 799.208 79.0267 799.208 85C799.208 90.9733 798.221 96.0933 796.248 100.36C794.328 104.573 791.688 107.827 788.328 110.12C784.968 112.36 781.128 113.48 776.808 113.48ZM776.808 108.2C780.115 108.2 782.995 107.32 785.448 105.56C787.901 103.747 789.821 101.133 791.208 97.72C792.595 94.2533 793.288 90.0133 793.288 85C793.288 79.9867 792.595 75.7733 791.208 72.36C789.821 68.8933 787.901 66.28 785.448 64.52C782.995 62.7067 780.115 61.8 776.808 61.8C773.608 61.8 770.755 62.7067 768.248 64.52C765.741 66.28 763.795 68.8933 762.408 72.36C761.021 75.7733 760.328 79.9867 760.328 85C760.328 90.0133 761.021 94.2533 762.408 97.72C763.795 101.133 765.741 103.747 768.248 105.56C770.755 107.32 773.608 108.2 776.808 108.2ZM823.396 113.48C819.342 113.48 815.502 112.84 811.876 111.56C808.302 110.227 805.422 108.467 803.236 106.28L806.036 101.72C807.849 103.587 810.276 105.133 813.316 106.36C816.409 107.587 819.769 108.2 823.396 108.2C828.036 108.2 831.582 107.187 834.036 105.16C836.542 103.133 837.796 100.413 837.796 97C837.796 93.5867 836.569 90.8667 834.116 88.84C831.716 86.8133 827.902 85.8 822.676 85.8H818.676V81.56L835.956 59.88L836.756 62.12H805.556V57H841.556V61.08L824.276 82.76L821.476 80.92H823.636C830.356 80.92 835.369 82.4133 838.676 85.4C842.036 88.3867 843.716 92.2267 843.716 96.92C843.716 100.067 842.969 102.893 841.476 105.4C839.982 107.907 837.716 109.88 834.676 111.32C831.689 112.76 827.929 113.48 823.396 113.48Z" fill="#696975"/>
<path d="M716.122 140L711.28 133.718L712.36 133.07L717.652 140H716.122ZM707.5 140V127.4H708.796V140H707.5ZM708.4 134.222V133.052H712.342V134.222H708.4ZM712.468 133.844L711.244 133.628L715.942 127.4H717.382L712.468 133.844ZM723.176 140.09C722.264 140.09 721.442 139.886 720.71 139.478C719.99 139.058 719.42 138.488 719 137.768C718.58 137.036 718.37 136.202 718.37 135.266C718.37 134.318 718.58 133.484 719 132.764C719.42 132.044 719.99 131.48 720.71 131.072C721.43 130.664 722.252 130.46 723.176 130.46C724.112 130.46 724.94 130.664 725.66 131.072C726.392 131.48 726.962 132.044 727.37 132.764C727.79 133.484 728 134.318 728 135.266C728 136.202 727.79 137.036 727.37 137.768C726.962 138.488 726.392 139.058 725.66 139.478C724.928 139.886 724.1 140.09 723.176 140.09ZM723.176 138.956C723.86 138.956 724.466 138.806 724.994 138.506C725.522 138.194 725.936 137.762 726.236 137.21C726.548 136.646 726.704 135.998 726.704 135.266C726.704 134.522 726.548 133.874 726.236 133.322C725.936 132.77 725.522 132.344 724.994 132.044C724.466 131.732 723.866 131.576 723.194 131.576C722.522 131.576 721.922 131.732 721.394 132.044C720.866 132.344 720.446 132.77 720.134 133.322C719.822 133.874 719.666 134.522 719.666 135.266C719.666 135.998 719.822 136.646 720.134 137.21C720.446 137.762 720.866 138.194 721.394 138.506C721.922 138.806 722.516 138.956 723.176 138.956ZM730.731 140V130.55H732.009V134.726H737.967V130.55H739.245V140H737.967V135.824H732.009V140H730.731ZM746.838 140.09C745.902 140.09 745.062 139.886 744.318 139.478C743.586 139.058 743.01 138.488 742.59 137.768C742.17 137.036 741.96 136.202 741.96 135.266C741.96 134.318 742.17 133.484 742.59 132.764C743.01 132.044 743.586 131.48 744.318 131.072C745.062 130.664 745.902 130.46 746.838 130.46C747.642 130.46 748.368 130.616 749.016 130.928C749.664 131.24 750.174 131.708 750.546 132.332L749.592 132.98C749.268 132.5 748.866 132.146 748.386 131.918C747.906 131.69 747.384 131.576 746.82 131.576C746.148 131.576 745.542 131.732 745.002 132.044C744.462 132.344 744.036 132.77 743.724 133.322C743.412 133.874 743.256 134.522 743.256 135.266C743.256 136.01 743.412 136.658 743.724 137.21C744.036 137.762 744.462 138.194 745.002 138.506C745.542 138.806 746.148 138.956 746.82 138.956C747.384 138.956 747.906 138.842 748.386 138.614C748.866 138.386 749.268 138.038 749.592 137.57L750.546 138.218C750.174 138.83 749.664 139.298 749.016 139.622C748.368 139.934 747.642 140.09 746.838 140.09ZM753.042 143.582C752.598 143.582 752.172 143.51 751.764 143.366C751.368 143.222 751.026 143.006 750.738 142.718L751.332 141.764C751.572 141.992 751.83 142.166 752.106 142.286C752.394 142.418 752.712 142.484 753.06 142.484C753.48 142.484 753.84 142.364 754.14 142.124C754.452 141.896 754.746 141.488 755.022 140.9L755.634 139.514L755.778 139.316L759.666 130.55H760.926L756.192 141.134C755.928 141.746 755.634 142.232 755.31 142.592C754.998 142.952 754.656 143.204 754.284 143.348C753.912 143.504 753.498 143.582 753.042 143.582ZM755.562 140.27L751.206 130.55H752.538L756.39 139.226L755.562 140.27ZM760.784 139.982L760.874 138.884C760.958 138.896 761.036 138.914 761.108 138.938C761.192 138.95 761.264 138.956 761.324 138.956C761.708 138.956 762.014 138.812 762.242 138.524C762.482 138.236 762.662 137.852 762.782 137.372C762.902 136.892 762.986 136.352 763.034 135.752C763.082 135.14 763.124 134.528 763.16 133.916L763.322 130.55H770.252V140H768.974V131.288L769.298 131.666H764.15L764.456 131.27L764.312 134.006C764.276 134.822 764.21 135.602 764.114 136.346C764.03 137.09 763.892 137.744 763.7 138.308C763.52 138.872 763.268 139.316 762.944 139.64C762.62 139.952 762.206 140.108 761.702 140.108C761.558 140.108 761.408 140.096 761.252 140.072C761.108 140.048 760.952 140.018 760.784 139.982ZM777.953 133.88C779.141 133.892 780.041 134.156 780.653 134.672C781.277 135.188 781.589 135.932 781.589 136.904C781.589 137.912 781.253 138.686 780.581 139.226C779.921 139.766 778.961 140.03 777.701 140.018L773.885 140V130.55H775.163V133.844L777.953 133.88ZM777.629 139.046C778.505 139.058 779.165 138.884 779.609 138.524C780.065 138.152 780.293 137.612 780.293 136.904C780.293 136.196 780.071 135.68 779.627 135.356C779.183 135.02 778.517 134.846 777.629 134.834L775.163 134.798V139.01L777.629 139.046ZM784.879 140V131.324L785.203 131.666H781.297V130.55H789.739V131.666H785.833L786.157 131.324V140H784.879ZM797.455 140V137.912L797.401 137.57V134.078C797.401 133.274 797.173 132.656 796.717 132.224C796.273 131.792 795.607 131.576 794.719 131.576C794.107 131.576 793.525 131.678 792.973 131.882C792.421 132.086 791.953 132.356 791.569 132.692L790.993 131.738C791.473 131.33 792.049 131.018 792.721 130.802C793.393 130.574 794.101 130.46 794.845 130.46C796.069 130.46 797.011 130.766 797.671 131.378C798.343 131.978 798.679 132.896 798.679 134.132V140H797.455ZM794.197 140.09C793.489 140.09 792.871 139.976 792.343 139.748C791.827 139.508 791.431 139.184 791.155 138.776C790.879 138.356 790.741 137.876 790.741 137.336C790.741 136.844 790.855 136.4 791.083 136.004C791.323 135.596 791.707 135.272 792.235 135.032C792.775 134.78 793.495 134.654 794.395 134.654H797.653V135.608H794.431C793.519 135.608 792.883 135.77 792.523 136.094C792.175 136.418 792.001 136.82 792.001 137.3C792.001 137.84 792.211 138.272 792.631 138.596C793.051 138.92 793.639 139.082 794.395 139.082C795.115 139.082 795.733 138.92 796.249 138.596C796.777 138.26 797.161 137.78 797.401 137.156L797.689 138.038C797.449 138.662 797.029 139.16 796.429 139.532C795.841 139.904 795.097 140.09 794.197 140.09ZM802.081 140V130.55H803.359V138.884H809.137V130.55H810.415V140H802.081ZM810.739 142.286V139.892L811.063 140H809.137V138.884H811.945V142.286H810.739ZM814.385 140V130.55H815.663V138.056L821.981 130.55H823.115V140H821.837V132.476L815.537 140H814.385ZM832.88 140V136.598L833.114 136.868H829.91C828.698 136.868 827.75 136.604 827.066 136.076C826.382 135.548 826.04 134.78 826.04 133.772C826.04 132.692 826.406 131.888 827.138 131.36C827.87 130.82 828.848 130.55 830.072 130.55H834.05V140H832.88ZM825.968 140L828.56 136.364H829.892L827.354 140H825.968ZM832.88 136.22V131.288L833.114 131.666H830.108C829.232 131.666 828.548 131.834 828.056 132.17C827.576 132.506 827.336 133.052 827.336 133.808C827.336 135.212 828.23 135.914 830.018 135.914H833.114L832.88 136.22ZM842.567 143.582C842.123 143.582 841.697 143.51 841.289 143.366C840.893 143.222 840.551 143.006 840.263 142.718L840.857 141.764C841.097 141.992 841.355 142.166 841.631 142.286C841.919 142.418 842.237 142.484 842.585 142.484C843.005 142.484 843.365 142.364 843.665 142.124C843.977 141.896 844.271 141.488 844.547 140.9L845.159 139.514L845.303 139.316L849.191 130.55H850.451L845.717 141.134C845.453 141.746 845.159 142.232 844.835 142.592C844.523 142.952 844.181 143.204 843.809 143.348C843.437 143.504 843.023 143.582 842.567 143.582ZM845.087 140.27L840.731 130.55H842.063L845.915 139.226L845.087 140.27ZM723.116 163.09C722.18 163.09 721.34 162.886 720.596 162.478C719.864 162.058 719.288 161.488 718.868 160.768C718.448 160.036 718.238 159.202 718.238 158.266C718.238 157.318 718.448 156.484 718.868 155.764C719.288 155.044 719.864 154.48 720.596 154.072C721.34 153.664 722.18 153.46 723.116 153.46C723.92 153.46 724.646 153.616 725.294 153.928C725.942 154.24 726.452 154.708 726.824 155.332L725.87 155.98C725.546 155.5 725.144 155.146 724.664 154.918C724.184 154.69 723.662 154.576 723.098 154.576C722.426 154.576 721.82 154.732 721.28 155.044C720.74 155.344 720.314 155.77 720.002 156.322C719.69 156.874 719.534 157.522 719.534 158.266C719.534 159.01 719.69 159.658 720.002 160.21C720.314 160.762 720.74 161.194 721.28 161.506C721.82 161.806 722.426 161.956 723.098 161.956C723.662 161.956 724.184 161.842 724.664 161.614C725.144 161.386 725.546 161.038 725.87 160.57L726.824 161.218C726.452 161.83 725.942 162.298 725.294 162.622C724.646 162.934 723.92 163.09 723.116 163.09ZM729.298 163V153.55H737.794V163H736.516V154.324L736.84 154.666H730.252L730.576 154.324V163H729.298ZM745.477 163.09C744.493 163.09 743.629 162.886 742.885 162.478C742.141 162.058 741.559 161.488 741.139 160.768C740.719 160.036 740.509 159.202 740.509 158.266C740.509 157.33 740.707 156.502 741.103 155.782C741.511 155.062 742.063 154.498 742.759 154.09C743.467 153.67 744.259 153.46 745.135 153.46C746.023 153.46 746.809 153.664 747.493 154.072C748.189 154.468 748.735 155.032 749.131 155.764C749.527 156.484 749.725 157.318 749.725 158.266C749.725 158.326 749.719 158.392 749.707 158.464C749.707 158.524 749.707 158.59 749.707 158.662H741.481V157.708H749.023L748.519 158.086C748.519 157.402 748.369 156.796 748.069 156.268C747.781 155.728 747.385 155.308 746.881 155.008C746.377 154.708 745.795 154.558 745.135 154.558C744.487 154.558 743.905 154.708 743.389 155.008C742.873 155.308 742.471 155.728 742.183 156.268C741.895 156.808 741.751 157.426 741.751 158.122V158.32C741.751 159.04 741.907 159.676 742.219 160.228C742.543 160.768 742.987 161.194 743.551 161.506C744.127 161.806 744.781 161.956 745.513 161.956C746.089 161.956 746.623 161.854 747.115 161.65C747.619 161.446 748.051 161.134 748.411 160.714L749.131 161.542C748.711 162.046 748.183 162.43 747.547 162.694C746.923 162.958 746.233 163.09 745.477 163.09ZM752.554 163V153.55H753.832V161.884H759.61V153.55H760.888V163H752.554ZM761.212 165.286V162.892L761.536 163H759.61V161.884H762.418V165.286H761.212ZM764.859 163V153.55H766.137V161.056L772.455 153.55H773.589V163H772.311V155.476L766.011 163H764.859ZM783.12 163V160.912L783.066 160.57V157.078C783.066 156.274 782.838 155.656 782.382 155.224C781.938 154.792 781.272 154.576 780.384 154.576C779.772 154.576 779.19 154.678 778.638 154.882C778.086 155.086 777.618 155.356 777.234 155.692L776.658 154.738C777.138 154.33 777.714 154.018 778.386 153.802C779.058 153.574 779.766 153.46 780.51 153.46C781.734 153.46 782.676 153.766 783.336 154.378C784.008 154.978 784.344 155.896 784.344 157.132V163H783.12ZM779.862 163.09C779.154 163.09 778.536 162.976 778.008 162.748C777.492 162.508 777.096 162.184 776.82 161.776C776.544 161.356 776.406 160.876 776.406 160.336C776.406 159.844 776.52 159.4 776.748 159.004C776.988 158.596 777.372 158.272 777.9 158.032C778.44 157.78 779.16 157.654 780.06 157.654H783.318V158.608H780.096C779.184 158.608 778.548 158.77 778.188 159.094C777.84 159.418 777.666 159.82 777.666 160.3C777.666 160.84 777.876 161.272 778.296 161.596C778.716 161.92 779.304 162.082 780.06 162.082C780.78 162.082 781.398 161.92 781.914 161.596C782.442 161.26 782.826 160.78 783.066 160.156L783.354 161.038C783.114 161.662 782.694 162.16 782.094 162.532C781.506 162.904 780.762 163.09 779.862 163.09ZM786.018 162.982L786.108 161.884C786.192 161.896 786.27 161.914 786.342 161.938C786.426 161.95 786.498 161.956 786.558 161.956C786.942 161.956 787.248 161.812 787.476 161.524C787.716 161.236 787.896 160.852 788.016 160.372C788.136 159.892 788.22 159.352 788.268 158.752C788.316 158.14 788.358 157.528 788.394 156.916L788.556 153.55H795.486V163H794.208V154.288L794.532 154.666H789.384L789.69 154.27L789.546 157.006C789.51 157.822 789.444 158.602 789.348 159.346C789.264 160.09 789.126 160.744 788.934 161.308C788.754 161.872 788.502 162.316 788.178 162.64C787.854 162.952 787.44 163.108 786.936 163.108C786.792 163.108 786.642 163.096 786.486 163.072C786.342 163.048 786.186 163.018 786.018 162.982ZM799.119 163V153.55H800.397V161.056L806.715 153.55H807.849V163H806.571V155.476L800.271 163H799.119ZM815.471 163.09C814.535 163.09 813.695 162.886 812.951 162.478C812.219 162.058 811.643 161.488 811.223 160.768C810.803 160.036 810.593 159.202 810.593 158.266C810.593 157.318 810.803 156.484 811.223 155.764C811.643 155.044 812.219 154.48 812.951 154.072C813.695 153.664 814.535 153.46 815.471 153.46C816.275 153.46 817.001 153.616 817.649 153.928C818.297 154.24 818.807 154.708 819.179 155.332L818.225 155.98C817.901 155.5 817.499 155.146 817.019 154.918C816.539 154.69 816.017 154.576 815.453 154.576C814.781 154.576 814.175 154.732 813.635 155.044C813.095 155.344 812.669 155.77 812.357 156.322C812.045 156.874 811.889 157.522 811.889 158.266C811.889 159.01 812.045 159.658 812.357 160.21C812.669 160.762 813.095 161.194 813.635 161.506C814.175 161.806 814.781 161.956 815.453 161.956C816.017 161.956 816.539 161.842 817.019 161.614C817.499 161.386 817.901 161.038 818.225 160.57L819.179 161.218C818.807 161.83 818.297 162.298 817.649 162.622C817.001 162.934 816.275 163.09 815.471 163.09ZM823.278 163V154.324L823.602 154.666H819.696V153.55H828.138V154.666H824.232L824.556 154.324V163H823.278ZM835.854 163V160.912L835.8 160.57V157.078C835.8 156.274 835.572 155.656 835.116 155.224C834.672 154.792 834.006 154.576 833.118 154.576C832.506 154.576 831.924 154.678 831.372 154.882C830.82 155.086 830.352 155.356 829.968 155.692L829.392 154.738C829.872 154.33 830.448 154.018 831.12 153.802C831.792 153.574 832.5 153.46 833.244 153.46C834.468 153.46 835.41 153.766 836.07 154.378C836.742 154.978 837.078 155.896 837.078 157.132V163H835.854ZM832.596 163.09C831.888 163.09 831.27 162.976 830.742 162.748C830.226 162.508 829.83 162.184 829.554 161.776C829.278 161.356 829.14 160.876 829.14 160.336C829.14 159.844 829.254 159.4 829.482 159.004C829.722 158.596 830.106 158.272 830.634 158.032C831.174 157.78 831.894 157.654 832.794 157.654H836.052V158.608H832.83C831.918 158.608 831.282 158.77 830.922 159.094C830.574 159.418 830.4 159.82 830.4 160.3C830.4 160.84 830.61 161.272 831.03 161.596C831.45 161.92 832.038 162.082 832.794 162.082C833.514 162.082 834.132 161.92 834.648 161.596C835.176 161.26 835.56 160.78 835.8 160.156L836.088 161.038C835.848 161.662 835.428 162.16 834.828 162.532C834.24 162.904 833.496 163.09 832.596 163.09Z" fill="white"/>
<path fill-rule="evenodd" clip-rule="evenodd" d="M727.171 92.1865L715.195 95.2078L711.411 83.4509L699.529 80.0796L702.131 68.0059L693.527 59.1454L701.816 49.99L698.795 38.0144L710.552 34.2305L713.923 22.3487L725.997 24.9502L734.858 16.3459L744.013 24.6358L755.989 21.6144L759.772 33.3714L771.654 36.7426L769.053 48.8164L777.657 57.6769L769.367 66.8323L772.388 78.8079L760.632 82.5918L757.26 94.4736L745.187 91.872L736.326 100.476L727.171 92.1865Z" fill="url(#paint2_linear_0_1847)"/>
</g>
<g clip-path="url(#clip3_0_1847)">
<path d="M1078.05 206.98C1073.73 206.98 1069.89 205.86 1066.53 203.62C1063.17 201.327 1060.53 198.073 1058.61 193.86C1056.69 189.593 1055.73 184.473 1055.73 178.5C1055.73 172.527 1056.69 167.433 1058.61 163.22C1060.53 158.953 1063.17 155.7 1066.53 153.46C1069.89 151.167 1073.73 150.02 1078.05 150.02C1082.37 150.02 1086.21 151.167 1089.57 153.46C1092.93 155.7 1095.57 158.953 1097.49 163.22C1099.46 167.433 1100.45 172.527 1100.45 178.5C1100.45 184.473 1099.46 189.593 1097.49 193.86C1095.57 198.073 1092.93 201.327 1089.57 203.62C1086.21 205.86 1082.37 206.98 1078.05 206.98ZM1078.05 201.7C1081.36 201.7 1084.24 200.82 1086.69 199.06C1089.14 197.247 1091.06 194.633 1092.45 191.22C1093.84 187.753 1094.53 183.513 1094.53 178.5C1094.53 173.487 1093.84 169.273 1092.45 165.86C1091.06 162.393 1089.14 159.78 1086.69 158.02C1084.24 156.207 1081.36 155.3 1078.05 155.3C1074.85 155.3 1072 156.207 1069.49 158.02C1066.98 159.78 1065.04 162.393 1063.65 165.86C1062.26 169.273 1061.57 173.487 1061.57 178.5C1061.57 183.513 1062.26 187.753 1063.65 191.22C1065.04 194.633 1066.98 197.247 1069.49 199.06C1072 200.82 1074.85 201.7 1078.05 201.7ZM1107.74 191.78V187.62L1137.42 150.5H1143.82L1114.38 187.62L1111.26 186.66H1156.3V191.78H1107.74ZM1139.34 206.5V191.78L1139.5 186.66V173.7H1145.1V206.5H1139.34Z" fill="#696975"/>
<path d="M1019.16 237V224.4H1020.47V234.84L1028.53 224.4H1029.74V237H1028.43V226.578L1020.36 237H1019.16ZM1033.69 237V227.55H1034.96V231.726H1040.92V227.55H1042.2V237H1040.92V232.824H1034.96V237H1033.69ZM1051.14 237.108C1051.14 237.108 1051.12 237.108 1051.07 237.108C1051.02 237.108 1050.97 237.108 1050.93 237.108C1050.89 237.108 1050.86 237.108 1050.84 237.108C1048.96 237.096 1047.51 236.67 1046.46 235.83C1045.42 234.99 1044.9 233.796 1044.9 232.248C1044.9 230.724 1045.42 229.548 1046.46 228.72C1047.52 227.88 1049 227.454 1050.91 227.442C1050.92 227.442 1050.94 227.442 1050.98 227.442C1051.03 227.442 1051.07 227.442 1051.11 227.442C1051.14 227.442 1051.17 227.442 1051.18 227.442C1053.1 227.454 1054.59 227.88 1055.66 228.72C1056.73 229.548 1057.26 230.724 1057.26 232.248C1057.26 233.808 1056.72 235.008 1055.64 235.848C1054.57 236.688 1053.07 237.108 1051.14 237.108ZM1051.12 235.992C1052.19 235.992 1053.09 235.848 1053.81 235.56C1054.53 235.26 1055.07 234.834 1055.44 234.282C1055.82 233.73 1056 233.052 1056 232.248C1056 231.468 1055.82 230.808 1055.44 230.268C1055.07 229.716 1054.53 229.296 1053.81 229.008C1053.09 228.72 1052.19 228.576 1051.12 228.576C1051.11 228.576 1051.08 228.576 1051.02 228.576C1050.97 228.576 1050.94 228.576 1050.93 228.576C1049.88 228.576 1049.01 228.726 1048.3 229.026C1047.59 229.314 1047.06 229.728 1046.7 230.268C1046.34 230.808 1046.16 231.468 1046.16 232.248C1046.16 233.04 1046.34 233.712 1046.7 234.264C1047.07 234.816 1047.61 235.242 1048.32 235.542C1049.02 235.83 1049.89 235.98 1050.93 235.992C1050.95 235.992 1050.99 235.992 1051.03 235.992C1051.08 235.992 1051.11 235.992 1051.12 235.992ZM1050.44 240.492V223.644H1051.68V240.492H1050.44ZM1063.85 237.09C1062.94 237.09 1062.12 236.886 1061.39 236.478C1060.67 236.058 1060.1 235.488 1059.68 234.768C1059.26 234.036 1059.05 233.202 1059.05 232.266C1059.05 231.318 1059.26 230.484 1059.68 229.764C1060.1 229.044 1060.67 228.48 1061.39 228.072C1062.11 227.664 1062.93 227.46 1063.85 227.46C1064.79 227.46 1065.62 227.664 1066.34 228.072C1067.07 228.48 1067.64 229.044 1068.05 229.764C1068.47 230.484 1068.68 231.318 1068.68 232.266C1068.68 233.202 1068.47 234.036 1068.05 234.768C1067.64 235.488 1067.07 236.058 1066.34 236.478C1065.6 236.886 1064.78 237.09 1063.85 237.09ZM1063.85 235.956C1064.54 235.956 1065.14 235.806 1065.67 235.506C1066.2 235.194 1066.61 234.762 1066.91 234.21C1067.22 233.646 1067.38 232.998 1067.38 232.266C1067.38 231.522 1067.22 230.874 1066.91 230.322C1066.61 229.77 1066.2 229.344 1065.67 229.044C1065.14 228.732 1064.54 228.576 1063.87 228.576C1063.2 228.576 1062.6 228.732 1062.07 229.044C1061.54 229.344 1061.12 229.77 1060.81 230.322C1060.5 230.874 1060.34 231.522 1060.34 232.266C1060.34 232.998 1060.5 233.646 1060.81 234.21C1061.12 234.762 1061.54 235.194 1062.07 235.506C1062.6 235.806 1063.19 235.956 1063.85 235.956ZM1076.29 237.09C1075.47 237.09 1074.73 236.904 1074.07 236.532C1073.41 236.148 1072.88 235.602 1072.49 234.894C1072.1 234.174 1071.91 233.298 1071.91 232.266C1071.91 231.234 1072.1 230.364 1072.49 229.656C1072.87 228.936 1073.39 228.39 1074.05 228.018C1074.71 227.646 1075.46 227.46 1076.29 227.46C1077.19 227.46 1077.99 227.664 1078.7 228.072C1079.42 228.468 1079.98 229.032 1080.39 229.764C1080.8 230.484 1081 231.318 1081 232.266C1081 233.226 1080.8 234.066 1080.39 234.786C1079.98 235.506 1079.42 236.07 1078.7 236.478C1077.99 236.886 1077.19 237.09 1076.29 237.09ZM1071.41 240.492V227.55H1072.63V230.394L1072.51 232.284L1072.69 234.192V240.492H1071.41ZM1076.2 235.956C1076.87 235.956 1077.47 235.806 1078 235.506C1078.52 235.194 1078.94 234.762 1079.26 234.21C1079.57 233.646 1079.72 232.998 1079.72 232.266C1079.72 231.534 1079.57 230.892 1079.26 230.34C1078.94 229.788 1078.52 229.356 1078 229.044C1077.47 228.732 1076.87 228.576 1076.2 228.576C1075.52 228.576 1074.92 228.732 1074.38 229.044C1073.85 229.356 1073.43 229.788 1073.12 230.34C1072.82 230.892 1072.67 231.534 1072.67 232.266C1072.67 232.998 1072.82 233.646 1073.12 234.21C1073.43 234.762 1073.85 235.194 1074.38 235.506C1074.92 235.806 1075.52 235.956 1076.2 235.956ZM1083.75 237V227.55H1085.04L1089.33 234.804H1088.79L1093.14 227.55H1094.33V237H1093.16V229.008L1093.4 229.116L1089.33 235.848H1088.75L1084.65 229.044L1084.92 228.99V237H1083.75ZM1103.84 237V234.912L1103.78 234.57V231.078C1103.78 230.274 1103.55 229.656 1103.1 229.224C1102.65 228.792 1101.99 228.576 1101.1 228.576C1100.49 228.576 1099.91 228.678 1099.35 228.882C1098.8 229.086 1098.33 229.356 1097.95 229.692L1097.37 228.738C1097.85 228.33 1098.43 228.018 1099.1 227.802C1099.77 227.574 1100.48 227.46 1101.23 227.46C1102.45 227.46 1103.39 227.766 1104.05 228.378C1104.72 228.978 1105.06 229.896 1105.06 231.132V237H1103.84ZM1100.58 237.09C1099.87 237.09 1099.25 236.976 1098.72 236.748C1098.21 236.508 1097.81 236.184 1097.54 235.776C1097.26 235.356 1097.12 234.876 1097.12 234.336C1097.12 233.844 1097.24 233.4 1097.46 233.004C1097.7 232.596 1098.09 232.272 1098.62 232.032C1099.16 231.78 1099.88 231.654 1100.78 231.654H1104.03V232.608H1100.81C1099.9 232.608 1099.26 232.77 1098.9 233.094C1098.56 233.418 1098.38 233.82 1098.38 234.3C1098.38 234.84 1098.59 235.272 1099.01 235.596C1099.43 235.92 1100.02 236.082 1100.78 236.082C1101.5 236.082 1102.11 235.92 1102.63 235.596C1103.16 235.26 1103.54 234.78 1103.78 234.156L1104.07 235.038C1103.83 235.662 1103.41 236.16 1102.81 236.532C1102.22 236.904 1101.48 237.09 1100.58 237.09ZM1108.46 237V227.55H1109.74V235.884H1115.52V227.55H1116.8V237H1108.46ZM1117.12 239.286V236.892L1117.44 237H1115.52V235.884H1118.33V239.286H1117.12ZM1120.77 237V227.55H1122.05V235.056L1128.36 227.55H1129.5V237H1128.22V229.476L1121.92 237H1120.77ZM1139.26 237V233.598L1139.5 233.868H1136.29C1135.08 233.868 1134.13 233.604 1133.45 233.076C1132.76 232.548 1132.42 231.78 1132.42 230.772C1132.42 229.692 1132.79 228.888 1133.52 228.36C1134.25 227.82 1135.23 227.55 1136.45 227.55H1140.43V237H1139.26ZM1132.35 237L1134.94 233.364H1136.27L1133.74 237H1132.35ZM1139.26 233.22V228.288L1139.5 228.666H1136.49C1135.61 228.666 1134.93 228.834 1134.44 229.17C1133.96 229.506 1133.72 230.052 1133.72 230.808C1133.72 232.212 1134.61 232.914 1136.4 232.914H1139.5L1139.26 233.22ZM1035.81 260.09C1034.89 260.09 1034.07 259.886 1033.34 259.478C1032.62 259.058 1032.05 258.488 1031.63 257.768C1031.21 257.036 1031 256.202 1031 255.266C1031 254.318 1031.21 253.484 1031.63 252.764C1032.05 252.044 1032.62 251.48 1033.34 251.072C1034.06 250.664 1034.88 250.46 1035.81 250.46C1036.74 250.46 1037.57 250.664 1038.29 251.072C1039.02 251.48 1039.59 252.044 1040 252.764C1040.42 253.484 1040.63 254.318 1040.63 255.266C1040.63 256.202 1040.42 257.036 1040 257.768C1039.59 258.488 1039.02 259.058 1038.29 259.478C1037.56 259.886 1036.73 260.09 1035.81 260.09ZM1035.81 258.956C1036.49 258.956 1037.1 258.806 1037.62 258.506C1038.15 258.194 1038.57 257.762 1038.87 257.21C1039.18 256.646 1039.33 255.998 1039.33 255.266C1039.33 254.522 1039.18 253.874 1038.87 253.322C1038.57 252.77 1038.15 252.344 1037.62 252.044C1037.1 251.732 1036.5 251.576 1035.82 251.576C1035.15 251.576 1034.55 251.732 1034.02 252.044C1033.5 252.344 1033.08 252.77 1032.76 253.322C1032.45 253.874 1032.3 254.522 1032.3 255.266C1032.3 255.998 1032.45 256.646 1032.76 257.21C1033.08 257.762 1033.5 258.194 1034.02 258.506C1034.55 258.806 1035.15 258.956 1035.81 258.956ZM1052.32 260.108C1051.55 260.108 1050.87 259.982 1050.27 259.73C1049.68 259.478 1049.18 259.094 1048.76 258.578C1048.34 258.062 1048.02 257.426 1047.8 256.67C1047.59 255.902 1047.48 255.014 1047.48 254.006C1047.48 253.106 1047.56 252.32 1047.73 251.648C1047.9 250.964 1048.13 250.376 1048.43 249.884C1048.73 249.392 1049.08 248.978 1049.48 248.642C1049.88 248.294 1050.32 248.018 1050.79 247.814C1051.27 247.598 1051.76 247.436 1052.27 247.328L1056.51 246.338L1056.73 247.526L1052.73 248.426C1052.48 248.486 1052.18 248.57 1051.82 248.678C1051.47 248.786 1051.11 248.948 1050.74 249.164C1050.38 249.38 1050.04 249.68 1049.73 250.064C1049.42 250.448 1049.16 250.946 1048.97 251.558C1048.79 252.158 1048.7 252.908 1048.7 253.808C1048.7 254 1048.71 254.156 1048.72 254.276C1048.73 254.384 1048.74 254.504 1048.76 254.636C1048.78 254.756 1048.8 254.936 1048.81 255.176L1048.25 254.708C1048.38 253.976 1048.65 253.34 1049.06 252.8C1049.47 252.248 1049.98 251.822 1050.59 251.522C1051.22 251.21 1051.91 251.054 1052.66 251.054C1053.54 251.054 1054.32 251.246 1055 251.63C1055.69 252.002 1056.22 252.524 1056.6 253.196C1057 253.868 1057.2 254.648 1057.2 255.536C1057.2 256.412 1056.99 257.198 1056.59 257.894C1056.19 258.59 1055.63 259.136 1054.89 259.532C1054.16 259.916 1053.3 260.108 1052.32 260.108ZM1052.46 259.046C1053.14 259.046 1053.73 258.896 1054.25 258.596C1054.76 258.284 1055.16 257.864 1055.45 257.336C1055.75 256.808 1055.9 256.214 1055.9 255.554C1055.9 254.906 1055.75 254.33 1055.45 253.826C1055.16 253.322 1054.76 252.926 1054.25 252.638C1053.73 252.338 1053.13 252.188 1052.45 252.188C1051.77 252.188 1051.18 252.332 1050.66 252.62C1050.15 252.896 1049.74 253.286 1049.44 253.79C1049.15 254.294 1049.01 254.876 1049.01 255.536C1049.01 256.196 1049.15 256.79 1049.44 257.318C1049.74 257.846 1050.15 258.266 1050.66 258.578C1051.19 258.89 1051.79 259.046 1052.46 259.046ZM1063.83 260.09C1062.91 260.09 1062.09 259.886 1061.36 259.478C1060.64 259.058 1060.07 258.488 1059.65 257.768C1059.23 257.036 1059.02 256.202 1059.02 255.266C1059.02 254.318 1059.23 253.484 1059.65 252.764C1060.07 252.044 1060.64 251.48 1061.36 251.072C1062.08 250.664 1062.9 250.46 1063.83 250.46C1064.76 250.46 1065.59 250.664 1066.31 251.072C1067.04 251.48 1067.61 252.044 1068.02 252.764C1068.44 253.484 1068.65 254.318 1068.65 255.266C1068.65 256.202 1068.44 257.036 1068.02 257.768C1067.61 258.488 1067.04 259.058 1066.31 259.478C1065.58 259.886 1064.75 260.09 1063.83 260.09ZM1063.83 258.956C1064.51 258.956 1065.12 258.806 1065.64 258.506C1066.17 258.194 1066.59 257.762 1066.89 257.21C1067.2 256.646 1067.35 255.998 1067.35 255.266C1067.35 254.522 1067.2 253.874 1066.89 253.322C1066.59 252.77 1066.17 252.344 1065.64 252.044C1065.12 251.732 1064.52 251.576 1063.84 251.576C1063.17 251.576 1062.57 251.732 1062.04 252.044C1061.52 252.344 1061.1 252.77 1060.78 253.322C1060.47 253.874 1060.32 254.522 1060.32 255.266C1060.32 255.998 1060.47 256.646 1060.78 257.21C1061.1 257.762 1061.52 258.194 1062.04 258.506C1062.57 258.806 1063.17 258.956 1063.83 258.956ZM1069.6 259.982L1069.69 258.884C1069.77 258.896 1069.85 258.914 1069.92 258.938C1070.01 258.95 1070.08 258.956 1070.14 258.956C1070.52 258.956 1070.83 258.812 1071.06 258.524C1071.3 258.236 1071.48 257.852 1071.6 257.372C1071.72 256.892 1071.8 256.352 1071.85 255.752C1071.9 255.14 1071.94 254.528 1071.98 253.916L1072.14 250.55H1079.07V260H1077.79V251.288L1078.11 251.666H1072.97L1073.27 251.27L1073.13 254.006C1073.09 254.822 1073.03 255.602 1072.93 256.346C1072.85 257.09 1072.71 257.744 1072.52 258.308C1072.34 258.872 1072.08 259.316 1071.76 259.64C1071.44 259.952 1071.02 260.108 1070.52 260.108C1070.37 260.108 1070.22 260.096 1070.07 260.072C1069.92 260.048 1069.77 260.018 1069.6 259.982ZM1086.75 260.09C1085.77 260.09 1084.9 259.886 1084.16 259.478C1083.42 259.058 1082.83 258.488 1082.41 257.768C1081.99 257.036 1081.78 256.202 1081.78 255.266C1081.78 254.33 1081.98 253.502 1082.38 252.782C1082.79 252.062 1083.34 251.498 1084.03 251.09C1084.74 250.67 1085.53 250.46 1086.41 250.46C1087.3 250.46 1088.08 250.664 1088.77 251.072C1089.46 251.468 1090.01 252.032 1090.41 252.764C1090.8 253.484 1091 254.318 1091 255.266C1091 255.326 1090.99 255.392 1090.98 255.464C1090.98 255.524 1090.98 255.59 1090.98 255.662H1082.76V254.708H1090.3L1089.79 255.086C1089.79 254.402 1089.64 253.796 1089.34 253.268C1089.06 252.728 1088.66 252.308 1088.16 252.008C1087.65 251.708 1087.07 251.558 1086.41 251.558C1085.76 251.558 1085.18 251.708 1084.66 252.008C1084.15 252.308 1083.75 252.728 1083.46 253.268C1083.17 253.808 1083.03 254.426 1083.03 255.122V255.32C1083.03 256.04 1083.18 256.676 1083.49 257.228C1083.82 257.768 1084.26 258.194 1084.83 258.506C1085.4 258.806 1086.06 258.956 1086.79 258.956C1087.36 258.956 1087.9 258.854 1088.39 258.65C1088.89 258.446 1089.33 258.134 1089.69 257.714L1090.41 258.542C1089.99 259.046 1089.46 259.43 1088.82 259.694C1088.2 259.958 1087.51 260.09 1086.75 260.09ZM1096.1 260.108C1095.42 260.108 1094.74 260.012 1094.07 259.82C1093.4 259.628 1092.8 259.334 1092.29 258.938L1092.7 257.984C1093.16 258.32 1093.69 258.578 1094.29 258.758C1094.89 258.926 1095.48 259.01 1096.07 259.01C1096.66 258.998 1097.17 258.914 1097.6 258.758C1098.03 258.602 1098.37 258.386 1098.61 258.11C1098.85 257.834 1098.97 257.522 1098.97 257.174C1098.97 256.67 1098.74 256.28 1098.28 256.004C1097.83 255.716 1097.2 255.572 1096.41 255.572H1094.79V254.636H1096.32C1096.79 254.636 1097.2 254.576 1097.56 254.456C1097.92 254.336 1098.2 254.162 1098.39 253.934C1098.59 253.706 1098.7 253.436 1098.7 253.124C1098.7 252.788 1098.58 252.5 1098.34 252.26C1098.11 252.02 1097.79 251.84 1097.38 251.72C1096.97 251.6 1096.51 251.54 1096 251.54C1095.53 251.552 1095.04 251.624 1094.54 251.756C1094.03 251.876 1093.54 252.062 1093.04 252.314L1092.68 251.324C1093.24 251.036 1093.78 250.82 1094.32 250.676C1094.87 250.52 1095.43 250.442 1095.98 250.442C1096.73 250.418 1097.41 250.508 1098.01 250.712C1098.62 250.916 1099.11 251.21 1099.47 251.594C1099.83 251.966 1100.01 252.416 1100.01 252.944C1100.01 253.412 1099.87 253.82 1099.58 254.168C1099.29 254.516 1098.91 254.786 1098.43 254.978C1097.95 255.17 1097.4 255.266 1096.79 255.266L1096.84 254.924C1097.92 254.924 1098.76 255.134 1099.36 255.554C1099.97 255.974 1100.28 256.544 1100.28 257.264C1100.28 257.828 1100.09 258.326 1099.72 258.758C1099.35 259.178 1098.85 259.508 1098.21 259.748C1097.59 259.988 1096.88 260.108 1096.1 260.108ZM1103.18 260V250.55H1104.46V254.726H1110.42V250.55H1111.69V260H1110.42V255.824H1104.46V260H1103.18ZM1121.43 260V256.598L1121.66 256.868H1118.46C1117.25 256.868 1116.3 256.604 1115.61 256.076C1114.93 255.548 1114.59 254.78 1114.59 253.772C1114.59 252.692 1114.95 251.888 1115.69 251.36C1116.42 250.82 1117.4 250.55 1118.62 250.55H1122.6V260H1121.43ZM1114.52 260L1117.11 256.364H1118.44L1115.9 260H1114.52ZM1121.43 256.22V251.288L1121.66 251.666H1118.66C1117.78 251.666 1117.1 251.834 1116.6 252.17C1116.12 252.506 1115.88 253.052 1115.88 253.808C1115.88 255.212 1116.78 255.914 1118.57 255.914H1121.66L1121.43 256.22ZM1124.69 260L1128.69 254.816L1128.67 255.446L1124.87 250.55H1126.31L1129.43 254.6L1128.89 254.582L1132 250.55H1133.41L1129.57 255.5L1129.59 254.816L1133.62 260H1132.16L1128.87 255.68L1129.37 255.752L1126.13 260H1124.69Z" fill="white"/>
<path fill-rule="evenodd" clip-rule="evenodd" d="M1028.17 191.187L1016.2 194.208L1012.41 182.451L1000.53 179.08L1003.13 167.006L994.527 158.145L1002.82 148.99L999.795 137.014L1011.55 133.231L1014.92 121.349L1027 123.95L1035.86 115.346L1045.01 123.636L1056.99 120.614L1060.77 132.371L1072.65 135.743L1070.05 147.816L1078.66 156.677L1070.37 165.832L1073.39 177.808L1061.63 181.592L1058.26 193.474L1046.19 190.872L1037.33 199.476L1028.17 191.187Z" fill="url(#paint3_linear_0_1847)"/>
</g>
<path d="M961.839 22.732C904.174 10.4749 847.433 47.0283 834.23 104.562L833.844 106.312L834.822 106.52C847.15 48.5187 903.925 11.4443 961.632 23.7102C1018.76 35.8533 1055.39 91.8029 1044.15 149.199L1043.8 150.939L1044.77 151.146C1057.22 92.6065 1020.09 35.1129 961.839 22.732Z" fill="url(#paint4_linear_0_1847)"/>
<path d="M296.705 23.5074C239.04 11.2503 182.298 47.8036 169.096 105.337L168.709 107.087L169.687 107.295C182.016 49.2941 238.791 12.2197 296.497 24.4856C353.626 36.6287 390.253 92.5783 379.017 149.974L378.662 151.714L379.64 151.922C392.083 93.3819 354.953 35.8883 296.705 23.5074Z" fill="url(#paint5_linear_0_1847)"/>
<path d="M636.615 284.594C578.95 296.851 522.208 260.298 509.006 202.764L508.619 201.014L509.597 200.807C521.926 258.807 578.701 295.882 636.407 283.616C693.536 271.473 730.163 215.523 718.927 158.127L718.572 156.388L719.55 156.18C731.993 214.72 694.863 272.213 636.615 284.594Z" fill="url(#paint6_linear_0_1847)"/>
</g>
<defs>
<filter id="filter0_d_0_1847" x="0" y="7.41113" width="1215" height="287.55" filterUnits="userSpaceOnUse" color-interpolation-filters="sRGB">
<feFlood flood-opacity="0" result="BackgroundImageFix"/>
<feColorMatrix in="SourceAlpha" type="matrix" values="0 0 0 0 0 0 0 0 0 0 0 0 0 0 0 0 0 0 127 0" result="hardAlpha"/>
<feOffset dy="4"/>
<feGaussianBlur stdDeviation="2"/>
<feComposite in2="hardAlpha" operator="out"/>
<feColorMatrix type="matrix" values="0 0 0 0 0 0 0 0 0 0 0 0 0 0 0 0 0 0 0.25 0"/>
<feBlend mode="normal" in2="BackgroundImageFix" result="effect1_dropShadow_0_1847"/>
<feBlend mode="normal" in="SourceGraphic" in2="effect1_dropShadow_0_1847" result="shape"/>
</filter>
<linearGradient id="paint0_linear_0_1847" x1="29.6567" y1="42.0486" x2="61.8904" y2="101.82" gradientUnits="userSpaceOnUse">
<stop stop-color="#4FA5D8"/>
<stop offset="1" stop-color="#0855B1"/>
</linearGradient>
<linearGradient id="paint1_linear_0_1847" x1="368.657" y1="140.049" x2="400.89" y2="199.82" gradientUnits="userSpaceOnUse">
<stop stop-color="#4FA5D8"/>
<stop offset="1" stop-color="#0855B1"/>
</linearGradient>
<linearGradient id="paint2_linear_0_1847" x1="690.657" y1="41.0486" x2="722.89" y2="100.82" gradientUnits="userSpaceOnUse">
<stop stop-color="#4FA5D8"/>
<stop offset="1" stop-color="#0855B1"/>
</linearGradient>
<linearGradient id="paint3_linear_0_1847" x1="991.657" y1="140.049" x2="1023.89" y2="199.82" gradientUnits="userSpaceOnUse">
<stop stop-color="#4FA5D8"/>
<stop offset="1" stop-color="#0855B1"/>
</linearGradient>
<linearGradient id="paint4_linear_0_1847" x1="1023.06" y1="38.128" x2="1010.76" y2="84.6437" gradientUnits="userSpaceOnUse">
<stop stop-color="#CE946B"/>
<stop offset="0.507204" stop-color="#CE946B" stop-opacity="0.5"/>
<stop offset="1" stop-color="#B0776B" stop-opacity="0"/>
</linearGradient>
<linearGradient id="paint5_linear_0_1847" x1="357.925" y1="38.9034" x2="345.625" y2="85.4191" gradientUnits="userSpaceOnUse">
<stop stop-color="#CE946B"/>
<stop offset="0.507204" stop-color="#CE946B" stop-opacity="0.5"/>
<stop offset="1" stop-color="#CE946B" stop-opacity="0"/>
</linearGradient>
<linearGradient id="paint6_linear_0_1847" x1="697.835" y1="269.198" x2="685.535" y2="222.682" gradientUnits="userSpaceOnUse">
<stop stop-color="#CE946B"/>
<stop offset="0.507204" stop-color="#CE946B" stop-opacity="0.5"/>
<stop offset="1" stop-color="#CE946B" stop-opacity="0"/>
</linearGradient>
<clipPath id="clip0_0_1847">
<rect width="196" height="182.589" fill="white" transform="translate(4 8.41113)"/>
</clipPath>
<clipPath id="clip1_0_1847">
<rect width="162.408" height="171.589" fill="white" transform="translate(362.592 106.411)"/>
</clipPath>
<clipPath id="clip2_0_1847">
<rect width="176.408" height="173.589" fill="white" transform="translate(684.592 7.41113)"/>
</clipPath>
<clipPath id="clip3_0_1847">
<rect width="258" height="171.589" fill="white" transform="translate(953 106.411)"/>
</clipPath>
</defs>
</svg>
