<svg width="200" height="36" viewBox="0 0 200 36" fill="none" xmlns="http://www.w3.org/2000/svg">
<g clip-path="url(#clip0_0_1834)">
<path d="M53.3941 17.9238V6.72383H62.8181V17.9238H61.6501V7.42783L61.9541 7.74783H54.2581L54.5621 7.42783V17.9238H53.3941ZM71.1279 18.0038C70.4026 18.0038 69.7466 17.8385 69.1599 17.5078C68.5732 17.1665 68.1039 16.6812 67.7519 16.0518C67.4106 15.4118 67.2399 14.6332 67.2399 13.7158C67.2399 12.7985 67.4106 12.0252 67.7519 11.3958C68.0932 10.7558 68.5572 10.2705 69.1439 9.93983C69.7306 9.60916 70.3919 9.44383 71.1279 9.44383C71.9279 9.44383 72.6426 9.62516 73.2719 9.98783C73.9119 10.3398 74.4132 10.8412 74.7759 11.4918C75.1386 12.1318 75.3199 12.8732 75.3199 13.7158C75.3199 14.5692 75.1386 15.3158 74.7759 15.9558C74.4132 16.5958 73.9119 17.0972 73.2719 17.4598C72.6426 17.8225 71.9279 18.0038 71.1279 18.0038ZM66.7919 21.0278V9.52383H67.8799V12.0518L67.7679 13.7318L67.9279 15.4278V21.0278H66.7919ZM71.0479 16.9958C71.6452 16.9958 72.1786 16.8625 72.6479 16.5958C73.1172 16.3185 73.4906 15.9345 73.7679 15.4438C74.0452 14.9425 74.1839 14.3665 74.1839 13.7158C74.1839 13.0652 74.0452 12.4945 73.7679 12.0038C73.4906 11.5132 73.1172 11.1292 72.6479 10.8518C72.1786 10.5745 71.6452 10.4358 71.0479 10.4358C70.4506 10.4358 69.9119 10.5745 69.4319 10.8518C68.9626 11.1292 68.5892 11.5132 68.3119 12.0038C68.0452 12.4945 67.9119 13.0652 67.9119 13.7158C67.9119 14.3665 68.0452 14.9425 68.3119 15.4438C68.5892 15.9345 68.9626 16.3185 69.4319 16.5958C69.9119 16.8625 70.4506 16.9958 71.0479 16.9958ZM81.6833 18.0038C80.8726 18.0038 80.142 17.8225 79.4913 17.4598C78.8513 17.0865 78.3446 16.5798 77.9713 15.9398C77.598 15.2892 77.4113 14.5478 77.4113 13.7158C77.4113 12.8732 77.598 12.1318 77.9713 11.4918C78.3446 10.8518 78.8513 10.3505 79.4913 9.98783C80.1313 9.62516 80.862 9.44383 81.6833 9.44383C82.5153 9.44383 83.2513 9.62516 83.8913 9.98783C84.542 10.3505 85.0486 10.8518 85.4113 11.4918C85.7846 12.1318 85.9713 12.8732 85.9713 13.7158C85.9713 14.5478 85.7846 15.2892 85.4113 15.9398C85.0486 16.5798 84.542 17.0865 83.8913 17.4598C83.2406 17.8225 82.5046 18.0038 81.6833 18.0038ZM81.6833 16.9958C82.2913 16.9958 82.83 16.8625 83.2993 16.5958C83.7686 16.3185 84.1366 15.9345 84.4033 15.4438C84.6806 14.9425 84.8193 14.3665 84.8193 13.7158C84.8193 13.0545 84.6806 12.4785 84.4033 11.9878C84.1366 11.4972 83.7686 11.1185 83.2993 10.8518C82.83 10.5745 82.2966 10.4358 81.6993 10.4358C81.102 10.4358 80.5686 10.5745 80.0993 10.8518C79.63 11.1185 79.2566 11.4972 78.9793 11.9878C78.702 12.4785 78.5633 13.0545 78.5633 13.7158C78.5633 14.3665 78.702 14.9425 78.9793 15.4438C79.2566 15.9345 79.63 16.3185 80.0993 16.5958C80.5686 16.8625 81.0966 16.9958 81.6833 16.9958ZM93.5859 18.0198C93.5859 18.0198 93.5645 18.0198 93.5219 18.0198C93.4792 18.0198 93.4365 18.0198 93.3939 18.0198C93.3619 18.0198 93.3352 18.0198 93.3139 18.0198C91.6499 18.0092 90.3539 17.6305 89.4259 16.8838C88.4979 16.1372 88.0339 15.0758 88.0339 13.6998C88.0339 12.3452 88.4979 11.2998 89.4259 10.5638C90.3645 9.81716 91.6819 9.43849 93.3779 9.42783C93.3885 9.42783 93.4099 9.42783 93.4419 9.42783C93.4845 9.42783 93.5219 9.42783 93.5539 9.42783C93.5859 9.42783 93.6072 9.42783 93.6179 9.42783C95.3245 9.43849 96.6525 9.81716 97.6019 10.5638C98.5512 11.2998 99.0259 12.3452 99.0259 13.6998C99.0259 15.0865 98.5459 16.1532 97.5859 16.8998C96.6365 17.6465 95.3032 18.0198 93.5859 18.0198ZM93.5699 17.0278C94.5192 17.0278 95.3139 16.8998 95.9539 16.6438C96.5939 16.3772 97.0792 15.9985 97.4099 15.5078C97.7405 15.0172 97.9059 14.4145 97.9059 13.6998C97.9059 13.0065 97.7405 12.4198 97.4099 11.9398C97.0792 11.4492 96.5939 11.0758 95.9539 10.8198C95.3139 10.5638 94.5192 10.4358 93.5699 10.4358C93.5592 10.4358 93.5272 10.4358 93.4739 10.4358C93.4312 10.4358 93.4045 10.4358 93.3939 10.4358C92.4659 10.4358 91.6872 10.5692 91.0579 10.8358C90.4285 11.0918 89.9539 11.4598 89.6339 11.9398C89.3139 12.4198 89.1539 13.0065 89.1539 13.6998C89.1539 14.4038 89.3139 15.0012 89.6339 15.4918C89.9645 15.9825 90.4445 16.3612 91.0739 16.6278C91.7032 16.8838 92.4765 17.0172 93.3939 17.0278C93.4152 17.0278 93.4472 17.0278 93.4899 17.0278C93.5325 17.0278 93.5592 17.0278 93.5699 17.0278ZM92.9619 21.0278V6.05183H94.0659V21.0278H92.9619ZM101.895 17.9238V9.52383H103.031V16.1958L108.647 9.52383H109.655V17.9238H108.519V11.2358L102.919 17.9238H101.895ZM111.841 17.9078L111.921 16.9318C111.996 16.9425 112.065 16.9585 112.129 16.9798C112.204 16.9905 112.268 16.9958 112.321 16.9958C112.663 16.9958 112.935 16.8678 113.137 16.6118C113.351 16.3558 113.511 16.0145 113.617 15.5878C113.724 15.1612 113.799 14.6812 113.841 14.1478C113.884 13.6038 113.921 13.0598 113.953 12.5158L114.097 9.52383H120.257V17.9238H119.121V10.1798L119.409 10.5158H114.833L115.105 10.1638L114.977 12.5958C114.945 13.3212 114.887 14.0145 114.801 14.6758C114.727 15.3372 114.604 15.9185 114.433 16.4198C114.273 16.9212 114.049 17.3158 113.761 17.6038C113.473 17.8812 113.105 18.0198 112.657 18.0198C112.529 18.0198 112.396 18.0092 112.257 17.9878C112.129 17.9665 111.991 17.9398 111.841 17.9078ZM127.569 12.4838C128.625 12.4945 129.425 12.7292 129.969 13.1878C130.524 13.6465 130.801 14.3078 130.801 15.1718C130.801 16.0678 130.503 16.7558 129.905 17.2358C129.319 17.7158 128.465 17.9505 127.345 17.9398L123.953 17.9238V9.52383H125.089V12.4518L127.569 12.4838ZM127.281 17.0758C128.06 17.0865 128.647 16.9318 129.041 16.6118C129.447 16.2812 129.649 15.8012 129.649 15.1718C129.649 14.5425 129.452 14.0838 129.057 13.7958C128.663 13.4972 128.071 13.3425 127.281 13.3318L125.089 13.2998V17.0438L127.281 17.0758Z" fill="url(#paint0_linear_0_1834)"/>
<path opacity="0.356968" d="M53.9182 21.0282H123.918" stroke="url(#paint1_linear_0_1834)" stroke-dasharray="4"/>
</g>
<defs>
<linearGradient id="paint0_linear_0_1834" x1="11.1031" y1="10.8106" x2="19.8287" y2="50.4812" gradientUnits="userSpaceOnUse">
<stop stop-color="#E9BC9B"/>
<stop offset="1" stop-color="#CC936B"/>
</linearGradient>
<linearGradient id="paint1_linear_0_1834" x1="21.5075" y1="21.0091" x2="21.5357" y2="22.9959" gradientUnits="userSpaceOnUse">
<stop stop-color="#E9C6A4"/>
<stop offset="1" stop-color="#CE946B"/>
</linearGradient>
<clipPath id="clip0_0_1834">
<rect width="198.999" height="35.054" fill="white" transform="translate(0.851685 0.923828)"/>
</clipPath>
</defs>
</svg>
